<svg id="图层_1" data-name="图层 1" xmlns="http://www.w3.org/2000/svg" xmlns:xlink="http://www.w3.org/1999/xlink" viewBox="0 0 215 180"><defs><style>.cls-1{fill:#e2e6f0;}.cls-2{fill:none;}.cls-3{fill:url(#未命名的渐变_21);}.cls-4{fill:url(#未命名的渐变_6);}.cls-5{fill:url(#未命名的渐变_21-2);}.cls-6{fill:#b0c5df;}</style><linearGradient id="未命名的渐变_21" x1="109.09" y1="144.45" x2="109.09" y2="6.33" gradientUnits="userSpaceOnUse"><stop offset="0" stop-color="#c9d6ea"/><stop offset="1" stop-color="#82a5cb"/></linearGradient><linearGradient id="未命名的渐变_6" x1="109.09" y1="180" x2="109.09" y2="148.01" gradientUnits="userSpaceOnUse"><stop offset="0" stop-color="#c9d6ea" stop-opacity="0"/><stop offset="1" stop-color="#c9d6ea"/></linearGradient><linearGradient id="未命名的渐变_21-2" x1="112.78" y1="125.95" x2="112.78" y2="23.32" xlink:href="#未命名的渐变_21"/></defs><title>500icon</title><rect class="cls-1" width="215" height="150.78" rx="5.62" ry="5.62"/><rect class="cls-2" x="19.96" y="18.86" width="178.5" height="112.06"/><ellipse class="cls-2" cx="109.04" cy="137.51" rx="3.74" ry="3.72"/><rect class="cls-2" x="19.96" y="18.86" width="178.5" height="112.06"/><ellipse class="cls-2" cx="109.04" cy="137.51" rx="3.74" ry="3.72"/><ellipse class="cls-2" cx="109.04" cy="137.51" rx="3.74" ry="3.72"/><rect class="cls-2" x="19.96" y="18.86" width="178.5" height="112.06"/><path class="cls-3" d="M204.77,6.33H13.41a7.05,7.05,0,0,0-7,7V137.44a7.05,7.05,0,0,0,7,7H204.77a7.05,7.05,0,0,0,7-7V13.35A7.05,7.05,0,0,0,204.77,6.33ZM109,141.24a3.72,3.72,0,1,1,3.74-3.72A3.73,3.73,0,0,1,109,141.24Zm89.42-10.33H20V18.86h178.5Z"/><path class="cls-4" d="M135.77,152.81A4.82,4.82,0,0,0,131,148H88.18a4.82,4.82,0,0,0-4.82,4.8v13.67l-17.7,10.31V180h86.87v-3.89L135.77,167Z"/><path class="cls-5" d="M112.78,116.37q-1.1,0-5.12-4t-4-5.11q0-1.75,3.43-3a18,18,0,0,1,5.69-1.2,18,18,0,0,1,5.69,1.2q3.43,1.21,3.43,3,0,1.09-4,5.11t-5.12,4Zm14.84-14.83a22.1,22.1,0,0,1-2.2-1.37,31,31,0,0,0-5.58-2.74,19.08,19.08,0,0,0-7.06-1.37,19.47,19.47,0,0,0-7.06,1.37,28.93,28.93,0,0,0-5.55,2.74,13.66,13.66,0,0,1-2.22,1.37q-1,0-5.14-4.11t-4.15-5.09a1.73,1.73,0,0,1,.55-1.26A29.92,29.92,0,0,1,100,84.46,36.82,36.82,0,0,1,112.78,82a36.4,36.4,0,0,1,12.81,2.41,30.18,30.18,0,0,1,10.77,6.62,1.73,1.73,0,0,1,.55,1.26q0,1-4.15,5.09t-5.14,4.11Zm15-14.89a2.32,2.32,0,0,1-1.27-.43,65,65,0,0,0-13.85-8.46,39.61,39.61,0,0,0-24.11-1.51,43.54,43.54,0,0,0-8.19,2.9q-3.49,1.7-6.24,3.39t-4.34,2.9a13.26,13.26,0,0,1-1.7,1.2q-.94,0-5.06-4.11t-4.12-5.09a1.67,1.67,0,0,1,.55-1.21A50.28,50.28,0,0,1,91.88,65a56.63,56.63,0,0,1,41.78,0,50,50,0,0,1,17.59,11.22,1.67,1.67,0,0,1,.55,1.21q0,1-4.12,5.09t-5.06,4.11Zm14.9-14.83a1.93,1.93,0,0,1-1.21-.49A73.76,73.76,0,0,0,135.9,58.38,60.22,60.22,0,0,0,112.78,54a60.21,60.21,0,0,0-23.11,4.35A73.77,73.77,0,0,0,69.25,71.33a1.93,1.93,0,0,1-1.21.49q-.94,0-5.09-4.11T58.8,62.62a1.73,1.73,0,0,1,.55-1.26A71.57,71.57,0,0,1,83.81,45.59a77.94,77.94,0,0,1,57.94,0,71.59,71.59,0,0,1,24.46,15.76,1.73,1.73,0,0,1,.55,1.26q0,1-4.15,5.09t-5.09,4.11Zm0,0"/><path class="cls-6" d="M134.79,119.93a19.66,19.66,0,1,1,19.74-19.66A19.72,19.72,0,0,1,134.79,119.93Z"/><path class="cls-1" d="M134.79,81.11a19.16,19.16,0,1,1-19.24,19.16,19.2,19.2,0,0,1,19.24-19.16m0-1A20.16,20.16,0,1,0,155,100.27a20.22,20.22,0,0,0-20.24-20.16Z"/><path class="cls-1" d="M134.79,106.75h0c-1.71,0-2.17-1.39-2.17-3.09l-.93-14.93a3.11,3.11,0,0,1,3.1-3.09h0a3.11,3.11,0,0,1,3.1,3.09L137,103.66C137,105.36,136.5,106.75,134.79,106.75Z"/><ellipse class="cls-1" cx="134.79" cy="111.71" rx="3.1" ry="3.09"/></svg>