<?xml version="1.0" encoding="UTF-8"?>
<svg width="134px" height="32px" viewBox="0 0 134 32" version="1.1" xmlns="http://www.w3.org/2000/svg" xmlns:xlink="http://www.w3.org/1999/xlink">
    <title>logo@1x</title>
    <g id="组件" stroke="none" stroke-width="1" fill="none" fill-rule="evenodd">
        <g id="title-旷视" transform="translate(-34.000000, -6.000000)" fill="#FFFFFF">
            <g id="编组">
                <g id="logo" transform="translate(34.000000, 6.000000)">
                    <path d="M85.329227,20.9494309 C85.1636004,20.9950299 84.9435071,21.0160149 84.6503941,21.0160149 L82.9920594,21.0160149 L82.9920594,16.0277584 L85.8219464,16.0277584 L85.8219464,19.9986589 C85.8220588,20.7621661 85.5693574,20.8728389 85.329227,20.9494309 L85.329227,20.9494309 Z M82.9916546,13.0527781 L85.8219464,13.0527781 L85.8219464,7.96933393 L82.9916546,7.96933393 L82.9916546,13.0527781 Z M80.0535987,4.99484954 L80.0535987,24.0433112 L81.0619756,24.0433112 L84.8276022,24.0433112 L85.1184888,24.0433112 C87.6658099,24.0433112 88.8101287,23.0703595 88.8101287,20.5739096 L88.8101287,19.8684436 L88.8101287,6.34629776 L88.8101287,4.99484954 L80.0535987,4.99484954 Z" id="Fill-1"></path>
                    <path d="M100.537271,6.31475037 L100.537271,2.97504564 L97.4912712,2.97504564 L97.4912712,6.31475037 L90.904573,6.31475037 L90.904573,20.3234509 C90.8976466,24.4749668 88.5860932,25.1776378 87.3357868,25.5733551 L87.3357868,28.5905083 C87.3357868,28.5905083 94.0425727,27.9817176 94.002476,20.062795 L94.002476,9.39357376 L105.718291,9.39357376 L105.718291,6.31475037 L100.537271,6.31475037 Z" id="Fill-3"></path>
                    <path d="M130.492589,22.5342522 L130.492589,24.5079477 C130.492589,25.2467959 130.391886,25.5253263 129.321059,25.5253263 L128.565474,25.5253263 C127.555815,25.5253263 127.446094,25.3146647 127.446094,24.4820489 L127.446094,17.8520929 L126.222774,17.8520929 C126.408685,16.882635 126.508803,15.7770337 126.535227,14.416344 C126.560549,13.5143266 126.612879,8.96986589 126.612879,8.96986589 L123.515696,8.96986589 L123.515696,14.2508306 C123.515696,19.1099087 121.894219,22.0836267 117.469707,24.9672963 L117.469707,28.5871317 L117.653684,28.4731455 C120.979439,26.416637 123.080524,24.566034 124.426046,22.4716578 L124.426046,25.0833337 C124.426046,27.418057 125.456889,28.5526226 127.577134,28.5526226 L129.789154,28.5526226 C132.336745,28.5526226 133.329425,27.5798062 133.329425,25.0833337 L133.329425,22.5342522 L130.492589,22.5342522 Z" id="Fill-5"></path>
                    <path d="M115.622727,13.8103888 C116.5613,12.2128683 117.056246,10.5787423 117.056246,9.06696495 L117.056246,6.3280266 L114.452996,6.3280266 L114.452996,2.98780345 L111.406614,2.98780345 L111.406614,6.3280266 L107.735663,6.3280266 L107.735663,9.40694016 L113.827393,9.40694016 C113.653806,12.3480875 109.576446,15.9140516 107.875046,16.3435569 L107.875046,19.9181765 C107.875046,19.9181765 109.734494,19.5932357 111.510308,18.3348788 L111.510308,28.580568 L114.557477,28.580568 L114.557477,16.7910718 L117.090788,19.2258289 L117.090788,15.2643503 L115.622727,13.8103888 Z" id="Fill-7"></path>
                    <path d="M128.591906,3.88154401 L126.701132,3.88154401 L126.385171,3.88154401 L126.240639,3.88154401 L118.147492,3.8866832 L118.147492,19.0013457 L121.166483,19.0013457 L121.166483,6.90845712 L125.198732,6.90845712 L126.240639,6.90870506 L128.123969,6.90870506 C129.194751,6.90870506 129.295634,7.18725797 129.295634,7.92608362 L129.295634,18.9577978 L132.283839,18.9577978 L132.283839,7.35081032 C132.283839,4.85436042 131.139385,3.88154401 128.591906,3.88154401" id="Fill-9"></path>
                    <polygon id="Fill-11" points="55.869489 5.40851572 53.9090459 17.2281709 52.5247315 17.2281709 50.5786361 5.40851572 47.2583235 5.40851572 51.0123461 26.2959721 55.3700905 26.2959721 59.1913307 5.40851572"></polygon>
                    <polygon id="Fill-13" points="14.6861775 5.40851572 12.4155979 17.2281709 11.2659493 17.2281709 8.90010907 5.40851572 4.35460955 5.40851572 4.35460955 26.3126969 7.52233879 26.3126969 7.52233879 17.2281709 8.68557036 17.2281709 10.5896801 26.3126969 13.1371586 26.3126969 14.8391432 17.2281709 15.8859077 17.2281709 15.8859077 26.3126969 19.0533896 26.3126969 19.0533896 5.40851572"></polygon>
                    <polygon id="Fill-15" points="21.1388362 26.3461805 21.1388362 5.37568579 31.8634553 5.37568579 31.8634553 8.57721853 24.3169326 8.57721853 24.3169326 14.0170923 30.2835374 14.0170923 30.2835374 17.2198873 24.3169326 17.2198873 24.3169326 22.9821549 31.8634553 22.9821549 31.8634553 26.3461805"></polygon>
                    <polygon id="Fill-17" points="61.293484 26.3129945 64.4719627 26.3129945 64.4719627 5.40838499 61.293484 5.40838499"></polygon>
                    <polygon id="Fill-19" points="66.5571035 26.3129945 69.7357171 26.3129945 69.7357171 5.40838499 66.5571035 5.40838499"></polygon>
                    <path d="M45.1727936,8.62446072 L45.1727936,5.4083895 L35.5507775,5.4083895 C35.5507775,5.4083895 33.9487086,5.44907472 33.9487086,7.01880311 L33.9514072,26.3129764 C36.3819689,26.3235253 42.391234,26.3129764 43.5705673,26.3129764 C45.2206488,26.3129764 45.1727936,24.7072963 45.1727936,24.7072963 L45.1727936,13.9314595 L40.0394041,13.9314595 L40.0394041,17.2281799 L41.9640681,17.2281799 L41.9640681,23.100985 L37.1526666,23.100985 L37.1526666,8.62446072 L45.1727936,8.62446072 Z" id="Fill-20"></path>
                    <path d="M0.736650363,30.8847515 L73.3532805,30.8847515 L73.3532805,0.681776175 L0.736650363,0.681776175 L0.736650363,30.8847515 Z M74.0902457,0.184785304 L74.0902457,6.76208723e-05 L0,6.76208723e-05 L0,31.380683 L0,31.5654232 L74.0902457,31.5654232 L74.0902457,31.380683 L74.0902457,0.184852925 L74.0902457,0.184785304 Z" id="Fill-21"></path>
                </g>
            </g>
        </g>
    </g>
</svg>