<?xml version="1.0" encoding="UTF-8"?>
<svg width="1920px" height="126px" viewBox="0 0 1920 126" version="1.1" xmlns="http://www.w3.org/2000/svg" xmlns:xlink="http://www.w3.org/1999/xlink">
    <title>蒙版/主数据</title>
    <defs>
        <rect id="path-1" x="0" y="0" width="1920" height="126"></rect>
        <rect id="path-3" x="0" y="0" width="1920" height="1080"></rect>
        <filter x="-5.2%" y="-9.2%" width="110.3%" height="118.3%" filterUnits="objectBoundingBox" id="filter-5">
            <feGaussianBlur stdDeviation="33" in="SourceGraphic"></feGaussianBlur>
        </filter>
        <linearGradient x1="50%" y1="0%" x2="50%" y2="100%" id="linearGradient-6">
            <stop stop-color="#25319B" stop-opacity="0" offset="0%"></stop>
            <stop stop-color="#00077E" offset="100%"></stop>
        </linearGradient>
        <filter x="0.0%" y="0.0%" width="100.0%" height="100.0%" filterUnits="objectBoundingBox" id="filter-7">
            <feGaussianBlur stdDeviation="0" in="SourceGraphic"></feGaussianBlur>
        </filter>
        <filter x="0.0%" y="0.0%" width="100.0%" height="100.0%" filterUnits="objectBoundingBox" id="filter-8">
            <feGaussianBlur stdDeviation="0" in="SourceGraphic"></feGaussianBlur>
        </filter>
        <linearGradient x1="50%" y1="0%" x2="50%" y2="100%" id="linearGradient-9">
            <stop stop-color="#25319B" stop-opacity="0" offset="0%"></stop>
            <stop stop-color="#00077E" offset="100%"></stop>
        </linearGradient>
        <filter x="0.0%" y="0.0%" width="100.0%" height="100.0%" filterUnits="objectBoundingBox" id="filter-10">
            <feGaussianBlur stdDeviation="0" in="SourceGraphic"></feGaussianBlur>
        </filter>
        <linearGradient x1="50%" y1="0%" x2="50%" y2="100%" id="linearGradient-11">
            <stop stop-color="#25319B" stop-opacity="0" offset="0%"></stop>
            <stop stop-color="#00077E" offset="100%"></stop>
        </linearGradient>
        <filter x="0.0%" y="0.0%" width="100.0%" height="100.0%" filterUnits="objectBoundingBox" id="filter-12">
            <feGaussianBlur stdDeviation="0" in="SourceGraphic"></feGaussianBlur>
        </filter>
    </defs>
    <g id="页面1" stroke="none" stroke-width="1" fill="none" fill-rule="evenodd">
        <g id="dashboard1920" transform="translate(0.000000, -104.000000)">
            <g id="蒙版/主数据" transform="translate(0.000000, 104.000000)">
                <mask id="mask-2" fill="white">
                    <use xlink:href="#path-1"></use>
                </mask>
                <use id="蒙版" fill="#FFFFFF" opacity="0" xlink:href="#path-1"></use>
                <g id="1920蒙版" mask="url(#mask-2)">
                    <g transform="translate(0.000000, -104.000000)">
                        <g>
                            <mask id="mask-4" fill="white">
                                <use xlink:href="#path-3"></use>
                            </mask>
                            <use id="矩形" fill="#D8D8D8" opacity="0" xlink:href="#path-3"></use>
                            <path d="M1533.50273,1080 L382.502731,1080 L382.50187,1078.502 L1.49804901,1078.50208 L1.49804901,187.50208 L383.001197,187.50208 L383.00087,835.339 L1533.50273,835.339806 L1533.50187,187.164 L0.499869826,187.164545 L0.499869826,1.16454495 L1533.50187,1.164 L1533.50284,-2.26485497e-14 L1917.00338,-2.26485497e-14 L1917.00287,1.164 L1918.00208,1.16454495 L1918.00208,187.164545 L1917.00287,187.164 L1917.00338,1078.50208 L1533.50284,1078.50208 L1533.50273,1080 Z" id="形状结合" fill="#002A9C" opacity="0.94" filter="url(#filter-5)" mask="url(#mask-4)"></path>
                            <polygon id="矩形" fill="url(#linearGradient-6)" opacity="0.4" filter="url(#filter-7)" mask="url(#mask-4)" transform="translate(1897.504155, 539.000000) scale(-1, -1) rotate(-270.000000) translate(-1897.504155, -539.000000) " points="1359 517 2436.00831 517 2436.00831 561 1359 561"></polygon>
                            <polygon id="矩形" fill="url(#linearGradient-6)" opacity="0.4" filter="url(#filter-8)" mask="url(#mask-4)" transform="translate(22.000000, 539.334070) scale(1, -1) rotate(-270.000000) translate(-22.000000, -539.334070) " points="-516.504155 517.33407 560.504155 517.33407 560.504155 561.33407 -516.504155 561.33407"></polygon>
                            <rect id="矩形" fill="url(#linearGradient-9)" opacity="0.4" filter="url(#filter-10)" mask="url(#mask-4)" transform="translate(960.000000, 1058.000000) scale(1, -1) rotate(-180.000000) translate(-960.000000, -1058.000000) " x="0" y="1036" width="1920" height="44"></rect>
                            <rect id="矩形" fill="url(#linearGradient-11)" opacity="0.4" filter="url(#filter-12)" mask="url(#mask-4)" transform="translate(960.000000, 48.696951) scale(1, -1) translate(-960.000000, -48.696951) " x="0" y="0.829914887" width="1920" height="95.734072"></rect>
                        </g>
                    </g>
                </g>
            </g>
        </g>
    </g>
</svg>