<?xml version="1.0" encoding="UTF-8"?>
<svg width="1920px" height="86px" viewBox="0 0 1920 86" version="1.1" xmlns="http://www.w3.org/2000/svg" xmlns:xlink="http://www.w3.org/1999/xlink">
    <title>top</title>
    <defs>
        <rect id="path-1" x="0" y="0" width="1920" height="86"></rect>
        <linearGradient x1="48.9078122%" y1="33.8972784%" x2="48.9078122%" y2="98.0790688%" id="linearGradient-3">
            <stop stop-color="#538DE6" stop-opacity="0" offset="0%"></stop>
            <stop stop-color="#6E85F8" stop-opacity="0.424762228" offset="100%"></stop>
        </linearGradient>
        <filter x="-9.6%" y="-27.7%" width="119.2%" height="155.4%" filterUnits="objectBoundingBox" id="filter-4">
            <feGaussianBlur stdDeviation="17" in="SourceGraphic"></feGaussianBlur>
        </filter>
        <polygon id="path-5" points="344 22 396.911392 22 402 29 349.088608 29"></polygon>
        <filter x="-10.3%" y="-85.7%" width="120.7%" height="271.4%" filterUnits="objectBoundingBox" id="filter-6">
            <feOffset dx="0" dy="0" in="SourceAlpha" result="shadowOffsetOuter1"></feOffset>
            <feGaussianBlur stdDeviation="2" in="shadowOffsetOuter1" result="shadowBlurOuter1"></feGaussianBlur>
            <feColorMatrix values="0 0 0 0 0.266666667   0 0 0 0 0.4   0 0 0 0 0.956862745  0 0 0 1 0" type="matrix" in="shadowBlurOuter1"></feColorMatrix>
        </filter>
        <linearGradient x1="-4.84950565%" y1="50%" x2="97.0057968%" y2="50%" id="linearGradient-7">
            <stop stop-color="#799FFA" stop-opacity="0" offset="0%"></stop>
            <stop stop-color="#18D2FF" offset="100%"></stop>
        </linearGradient>
        <linearGradient x1="4.38245395%" y1="50%" x2="95.4950063%" y2="50%" id="linearGradient-8">
            <stop stop-color="#1B63FF" stop-opacity="0" offset="0%"></stop>
            <stop stop-color="#18D2FF" offset="100%"></stop>
        </linearGradient>
        <linearGradient x1="0%" y1="0%" x2="97.4891618%" y2="0%" id="linearGradient-9">
            <stop stop-color="#18D2FF" offset="0%"></stop>
            <stop stop-color="#1B63FF" offset="100%"></stop>
        </linearGradient>
        <path d="M342.271062,19 L395.389367,19" id="path-10"></path>
        <filter x="-6.5%" y="-100.0%" width="111.3%" height="350.0%" filterUnits="objectBoundingBox" id="filter-11">
            <feMorphology radius="0.5" operator="dilate" in="SourceAlpha" result="shadowSpreadOuter1"></feMorphology>
            <feOffset dx="0" dy="0" in="shadowSpreadOuter1" result="shadowOffsetOuter1"></feOffset>
            <feMorphology radius="1" operator="erode" in="SourceAlpha" result="shadowInner"></feMorphology>
            <feOffset dx="0" dy="0" in="shadowInner" result="shadowInner"></feOffset>
            <feComposite in="shadowOffsetOuter1" in2="shadowInner" operator="out" result="shadowOffsetOuter1"></feComposite>
            <feGaussianBlur stdDeviation="1" in="shadowOffsetOuter1" result="shadowBlurOuter1"></feGaussianBlur>
            <feColorMatrix values="0 0 0 0 0.266666667   0 0 0 0 0.4   0 0 0 0 0.956862745  0 0 0 1 0" type="matrix" in="shadowBlurOuter1"></feColorMatrix>
        </filter>
        <linearGradient x1="92.4711915%" y1="100%" x2="14.2056838%" y2="100%" id="linearGradient-12">
            <stop stop-color="#1B63FF" offset="0%"></stop>
            <stop stop-color="#18D2FF" offset="100%"></stop>
        </linearGradient>
        <polygon id="path-13" points="340 22 392.911392 22 398 29 345.088608 29"></polygon>
        <filter x="-10.3%" y="-85.7%" width="120.7%" height="271.4%" filterUnits="objectBoundingBox" id="filter-14">
            <feOffset dx="0" dy="0" in="SourceAlpha" result="shadowOffsetOuter1"></feOffset>
            <feGaussianBlur stdDeviation="2" in="shadowOffsetOuter1" result="shadowBlurOuter1"></feGaussianBlur>
            <feColorMatrix values="0 0 0 0 0.266666667   0 0 0 0 0.4   0 0 0 0 0.956862745  0 0 0 1 0" type="matrix" in="shadowBlurOuter1"></feColorMatrix>
        </filter>
        <linearGradient x1="0%" y1="0%" x2="97.4891618%" y2="0%" id="linearGradient-15">
            <stop stop-color="#18D2FF" offset="0%"></stop>
            <stop stop-color="#1B63FF" stop-opacity="0.6" offset="100%"></stop>
        </linearGradient>
        <path d="M338.271062,19 L391.389367,19" id="path-16"></path>
        <filter x="-6.5%" y="-100.0%" width="111.3%" height="350.0%" filterUnits="objectBoundingBox" id="filter-17">
            <feMorphology radius="0.5" operator="dilate" in="SourceAlpha" result="shadowSpreadOuter1"></feMorphology>
            <feOffset dx="0" dy="0" in="shadowSpreadOuter1" result="shadowOffsetOuter1"></feOffset>
            <feMorphology radius="1" operator="erode" in="SourceAlpha" result="shadowInner"></feMorphology>
            <feOffset dx="0" dy="0" in="shadowInner" result="shadowInner"></feOffset>
            <feComposite in="shadowOffsetOuter1" in2="shadowInner" operator="out" result="shadowOffsetOuter1"></feComposite>
            <feGaussianBlur stdDeviation="1" in="shadowOffsetOuter1" result="shadowBlurOuter1"></feGaussianBlur>
            <feColorMatrix values="0 0 0 0 0.266666667   0 0 0 0 0.4   0 0 0 0 0.956862745  0 0 0 1 0" type="matrix" in="shadowBlurOuter1"></feColorMatrix>
        </filter>
        <linearGradient x1="92.4711915%" y1="100%" x2="14.2056838%" y2="100%" id="linearGradient-18">
            <stop stop-color="#1B63FF" offset="0%"></stop>
            <stop stop-color="#18D2FF" offset="100%"></stop>
        </linearGradient>
        <linearGradient x1="50%" y1="0%" x2="50%" y2="100%" id="linearGradient-19">
            <stop stop-color="#19B6FF" stop-opacity="0.7" offset="0%"></stop>
            <stop stop-color="#18D5FF" offset="100%"></stop>
        </linearGradient>
        <polygon id="path-20" points="654.077838 8 1266.47541 8 1298 46 1266.47541 85 654.077838 85 624 46"></polygon>
        <filter x="-5.5%" y="-46.8%" width="111.0%" height="193.5%" filterUnits="objectBoundingBox" id="filter-21">
            <feMorphology radius="2" operator="dilate" in="SourceAlpha" result="shadowSpreadOuter1"></feMorphology>
            <feOffset dx="0" dy="0" in="shadowSpreadOuter1" result="shadowOffsetOuter1"></feOffset>
            <feGaussianBlur stdDeviation="10" in="shadowOffsetOuter1" result="shadowBlurOuter1"></feGaussianBlur>
            <feComposite in="shadowBlurOuter1" in2="SourceAlpha" operator="out" result="shadowBlurOuter1"></feComposite>
            <feColorMatrix values="0 0 0 0 0.266666667   0 0 0 0 0.4   0 0 0 0 0.956862745  0 0 0 0.3 0" type="matrix" in="shadowBlurOuter1"></feColorMatrix>
        </filter>
        <linearGradient x1="50%" y1="93.7455347%" x2="50%" y2="1.07421875%" id="linearGradient-22">
            <stop stop-color="#18D2FF" offset="0%"></stop>
            <stop stop-color="#1B63FF" offset="100%"></stop>
        </linearGradient>
        <linearGradient x1="50%" y1="0%" x2="50%" y2="100%" id="linearGradient-23">
            <stop stop-color="#19D4FD" stop-opacity="0.208861451" offset="0%"></stop>
            <stop stop-color="#19D4FD" stop-opacity="0.319656906" offset="100%"></stop>
        </linearGradient>
    </defs>
    <g id="页面1" stroke="none" stroke-width="1" fill="none" fill-rule="evenodd">
        <g id="dashboard" transform="translate(1.000000, 0.000000)">
            <g id="top" transform="translate(-1.000000, 0.000000)">
                <mask id="mask-2" fill="white">
                    <use xlink:href="#path-1"></use>
                </mask>
                <use id="矩形" fill="#D8D8D8" opacity="0" xlink:href="#path-1"></use>
                <ellipse id="椭圆形" fill="url(#linearGradient-3)" opacity="0.300000012" filter="url(#filter-4)" mask="url(#mask-2)" cx="962" cy="14" rx="265" ry="92"></ellipse>
                <g id="编组-2" mask="url(#mask-2)">
                    <g transform="translate(21.000000, 18.000000)">
                        <g id="矩形" stroke="none" fill="none">
                            <use fill="black" fill-opacity="1" filter="url(#filter-6)" xlink:href="#path-5"></use>
                            <use fill="#18D2FF" fill-rule="evenodd" xlink:href="#path-5"></use>
                        </g>
                        <path d="M447,32 L447,36 L443,36 L443,32 L447,32 Z M436,32 L436,36 L432,36 L432,32 L436,32 Z M457,32 L457,36 L453,36 L453,32 L457,32 Z M467,32 L467,36 L463,36 L463,32 L467,32 Z M477,32 L477,36 L473,36 L473,32 L477,32 Z M487,32 L487,36 L483,36 L483,32 L487,32 Z" id="合并形状" stroke="none" fill="#18D2FF" fill-rule="evenodd" opacity="0.600000024"></path>
                        <g id="编组-23" stroke="none" stroke-width="1" fill="none" fill-rule="evenodd" transform="translate(220.000000, 18.000000)">
                            <path d="M94.7640378,0.5 L1.20710678,0.5 L17.2071068,16.5 L107.940508,16.5 L94.7640378,0.5 Z" id="矩形" stroke="url(#linearGradient-7)"></path>
                            <polygon id="矩形" fill="url(#linearGradient-8)" points="20 4 92 4 100 13 30 13"></polygon>
                        </g>
                        <line x1="363.744488" y1="28.0433243" x2="604.49286" y2="28.0433243" id="路径-5" stroke="#18D2FF" stroke-width="2" fill="none" transform="translate(483.872244, 28.043324) scale(-1, 1) translate(-483.872244, -28.043324) "></line>
                        <polyline id="路径-6" stroke="url(#linearGradient-9)" stroke-width="2" fill="none" transform="translate(214.760076, 20.929421) scale(-1, 1) translate(-214.760076, -20.929421) " points="2.0239367 33.0769231 91.0422434 33.0769231 110.939699 8.78191848 375.350795 8.78191848 383.301761 8.78191848 427.496216 8.78191848"></polyline>
                        <path d="M54.000093,0.682867919 L57,5.68286792 L3.00167433,5.68286792 L0,0.682867919 L54.000093,0.682867919 Z M61.0007573,0.682867919 L64,5.68286792 L60.0010097,5.68286792 L57,0.682867919 L61.0007573,0.682867919 Z M68.0007573,0.682867919 L71,5.68286792 L67.0010097,5.68286792 L64,0.682867919 L68.0007573,0.682867919 Z M75.0007573,0.682867919 L78,5.68286792 L74.0010097,5.68286792 L71,0.682867919 L75.0007573,0.682867919 Z" id="合并形状" stroke="none" fill="#1B63FF" fill-rule="evenodd"></path>
                        <g id="路径-15" stroke="none" fill="none">
                            <use fill="black" fill-opacity="1" filter="url(#filter-11)" xlink:href="#path-10"></use>
                            <use stroke="#18D2FF" stroke-width="1" xlink:href="#path-10"></use>
                        </g>
                        <path d="M498.999,31.6923077 L504.84,32.7273077 L522.728938,54.7433088 L517.728938,54.7433088 L498.999,31.6923077 Z M508.345,33.3483077 L514.185,34.3823077 L530.728938,54.7433088 L525.728938,54.7433088 L508.345,33.3483077 Z M517.689,35.0033077 L523.53,36.0383077 L538.728938,54.7433088 L533.728938,54.7433088 L517.689,35.0033077 Z M527.034,36.6593077 L532.875,37.6943077 L546.728938,54.7433088 L541.728938,54.7433088 L527.034,36.6593077 Z M536.38,38.3153077 L542.221,39.3503077 L554.728938,54.7433088 L549.728938,54.7433088 L536.38,38.3153077 Z M545.725,39.9713077 L551.566,41.0053077 L562.728938,54.7433088 L557.728938,54.7433088 L545.725,39.9713077 Z M555.07,41.6263077 L560.911,42.6613077 L570.728938,54.7433088 L565.728938,54.7433088 L555.07,41.6263077 Z M564.416,43.2823077 L570.257,44.3173077 L578.728938,54.7433088 L573.728938,54.7433088 L564.416,43.2823077 Z M573.761,44.9383077 L579.602,45.9733077 L586.728938,54.7433088 L581.728938,54.7433088 L573.761,44.9383077 Z M583.106,46.5943077 L588.947,47.6283077 L594.728938,54.7433088 L589.728938,54.7433088 L583.106,46.5943077 Z M592.452,48.2493077 L598.293,49.2843077 L602.728938,54.7433088 L597.728938,54.7433088 L592.452,48.2493077 Z M601.797,49.9053077 L607.638,50.9403077 L610.728938,54.7433088 L605.728938,54.7433088 L601.797,49.9053077 Z M611.142,51.5613077 L616.983,52.5963077 L618.728938,54.7433088 L613.728938,54.7433088 L611.142,51.5613077 Z" id="形状结合" stroke="none" fill="url(#linearGradient-12)" fill-rule="evenodd" opacity="0.400000006" transform="translate(558.864469, 43.217808) scale(-1, -1) translate(-558.864469, -43.217808) "></path>
                        <path d="M498.270062,1.25669116 L504.111062,2.29169116 L522,24.3076923 L517,24.3076923 L498.270062,1.25669116 Z M507.616062,2.91269116 L513.456062,3.94669116 L530,24.3076923 L525,24.3076923 L507.616062,2.91269116 Z M516.960062,4.56769116 L522.801062,5.60269116 L538,24.3076923 L533,24.3076923 L516.960062,4.56769116 Z M526.305062,6.22369116 L532.146062,7.25869116 L546,24.3076923 L541,24.3076923 L526.305062,6.22369116 Z M535.651062,7.87969116 L541.492062,8.91469116 L554,24.3076923 L549,24.3076923 L535.651062,7.87969116 Z M544.996062,9.53569116 L550.837062,10.5696912 L562,24.3076923 L557,24.3076923 L544.996062,9.53569116 Z M554.341062,11.1906912 L560.182062,12.2256912 L570,24.3076923 L565,24.3076923 L554.341062,11.1906912 Z M563.687062,12.8466912 L569.528062,13.8816912 L578,24.3076923 L573,24.3076923 L563.687062,12.8466912 Z M573.032062,14.5026912 L578.873062,15.5376912 L586,24.3076923 L581,24.3076923 L573.032062,14.5026912 Z M582.377062,16.1586912 L588.218062,17.1926912 L594,24.3076923 L589,24.3076923 L582.377062,16.1586912 Z M591.723062,17.8136912 L597.564062,18.8486912 L602,24.3076923 L597,24.3076923 L591.723062,17.8136912 Z M601.068062,19.4696912 L606.909062,20.5046912 L610,24.3076923 L605,24.3076923 L601.068062,19.4696912 Z M610.413062,21.1256912 L616.254062,22.1606912 L618,24.3076923 L613,24.3076923 L610.413062,21.1256912 Z" id="形状结合" stroke="none" fill="url(#linearGradient-12)" fill-rule="evenodd" transform="translate(558.135531, 12.782192) scale(-1, 1) translate(-558.135531, -12.782192) "></path>
                        <path d="M1260.999,1 L1266.84,2.035 L1284.72894,24.0510011 L1279.72894,24.0510011 L1260.999,1 Z M1270.345,2.656 L1276.185,3.69 L1292.72894,24.0510011 L1287.72894,24.0510011 L1270.345,2.656 Z M1279.689,4.311 L1285.53,5.346 L1300.72894,24.0510011 L1295.72894,24.0510011 L1279.689,4.311 Z M1289.034,5.967 L1294.875,7.002 L1308.72894,24.0510011 L1303.72894,24.0510011 L1289.034,5.967 Z M1298.38,7.623 L1304.221,8.658 L1316.72894,24.0510011 L1311.72894,24.0510011 L1298.38,7.623 Z M1307.725,9.279 L1313.566,10.313 L1324.72894,24.0510011 L1319.72894,24.0510011 L1307.725,9.279 Z M1317.07,10.934 L1322.911,11.969 L1332.72894,24.0510011 L1327.72894,24.0510011 L1317.07,10.934 Z M1326.416,12.59 L1332.257,13.625 L1340.72894,24.0510011 L1335.72894,24.0510011 L1326.416,12.59 Z M1335.761,14.246 L1341.602,15.281 L1348.72894,24.0510011 L1343.72894,24.0510011 L1335.761,14.246 Z M1345.106,15.902 L1350.947,16.936 L1356.72894,24.0510011 L1351.72894,24.0510011 L1345.106,15.902 Z M1354.452,17.557 L1360.293,18.592 L1364.72894,24.0510011 L1359.72894,24.0510011 L1354.452,17.557 Z M1363.797,19.213 L1369.638,20.248 L1372.72894,24.0510011 L1367.72894,24.0510011 L1363.797,19.213 Z M1373.142,20.869 L1378.983,21.904 L1380.72894,24.0510011 L1375.72894,24.0510011 L1373.142,20.869 Z" id="形状结合" stroke="none" fill="url(#linearGradient-12)" fill-rule="evenodd"></path>
                    </g>
                </g>
                <g id="编组-2" mask="url(#mask-2)">
                    <g transform="translate(1591.500000, 46.000000) scale(-1, 1) translate(-1591.500000, -46.000000) translate(1282.000000, 18.000000)">
                        <g id="矩形" stroke="none" fill="none">
                            <use fill="black" fill-opacity="1" filter="url(#filter-14)" xlink:href="#path-13"></use>
                            <use fill="#18D2FF" fill-rule="evenodd" xlink:href="#path-13"></use>
                        </g>
                        <path d="M447,32 L447,36 L443,36 L443,32 L447,32 Z M436,32 L436,36 L432,36 L432,32 L436,32 Z M457,32 L457,36 L453,36 L453,32 L457,32 Z M467,32 L467,36 L463,36 L463,32 L467,32 Z M477,32 L477,36 L473,36 L473,32 L477,32 Z M487,32 L487,36 L483,36 L483,32 L487,32 Z" id="合并形状" stroke="none" fill="#18D2FF" fill-rule="evenodd" opacity="0.600000024"></path>
                        <g id="编组-23" stroke="none" stroke-width="1" fill="none" fill-rule="evenodd" transform="translate(221.000000, 18.000000)">
                            <path d="M94.7640378,0.5 L1.20710678,0.5 L17.2071068,16.5 L107.940508,16.5 L94.7640378,0.5 Z" id="矩形" stroke="url(#linearGradient-7)"></path>
                            <polygon id="矩形" fill="url(#linearGradient-8)" points="20 4 92 4 100 13 30 13"></polygon>
                        </g>
                        <line x1="363.744488" y1="28.0433243" x2="604.49286" y2="28.0433243" id="路径-5" stroke="#18D2FF" stroke-width="2" fill="none" transform="translate(483.872244, 28.043324) scale(-1, 1) translate(-483.872244, -28.043324) "></line>
                        <polyline id="路径-6" stroke="url(#linearGradient-15)" stroke-width="2" fill="none" transform="translate(214.760076, 20.929421) scale(-1, 1) translate(-214.760076, -20.929421) " points="2.0239367 33.0769231 91.0422434 33.0769231 110.939699 8.78191848 375.350795 8.78191848 383.301761 8.78191848 427.496216 8.78191848"></polyline>
                        <path d="M54.000093,0 L57,5 L3.00167433,5 L0,0 L54.000093,0 Z M61.0007573,0 L64,5 L60.0010097,5 L57,0 L61.0007573,0 Z M68.0007573,0 L71,5 L67.0010097,5 L64,0 L68.0007573,0 Z M75.0007573,0 L78,5 L74.0010097,5 L71,0 L75.0007573,0 Z" id="合并形状" stroke="none" fill-opacity="0.7" fill="#1B63FF" fill-rule="evenodd"></path>
                        <g id="路径-15" stroke="none" fill="none">
                            <use fill="black" fill-opacity="1" filter="url(#filter-17)" xlink:href="#path-16"></use>
                            <use stroke="#18D2FF" stroke-width="1" xlink:href="#path-16"></use>
                        </g>
                        <path d="M499,32 L504.841,33.035 L522.729938,55.0510011 L517.729938,55.0510011 L499,32 Z M508.346,33.656 L514.186,34.69 L530.729938,55.0510011 L525.729938,55.0510011 L508.346,33.656 Z M517.69,35.311 L523.531,36.346 L538.729938,55.0510011 L533.729938,55.0510011 L517.69,35.311 Z M527.035,36.967 L532.876,38.002 L546.729938,55.0510011 L541.729938,55.0510011 L527.035,36.967 Z M536.381,38.623 L542.222,39.658 L554.729938,55.0510011 L549.729938,55.0510011 L536.381,38.623 Z M545.726,40.279 L551.567,41.313 L562.729938,55.0510011 L557.729938,55.0510011 L545.726,40.279 Z M555.071,41.934 L560.912,42.969 L570.729938,55.0510011 L565.729938,55.0510011 L555.071,41.934 Z M564.417,43.59 L570.258,44.625 L578.729938,55.0510011 L573.729938,55.0510011 L564.417,43.59 Z M573.762,45.246 L579.603,46.281 L586.729938,55.0510011 L581.729938,55.0510011 L573.762,45.246 Z M583.107,46.902 L588.948,47.936 L594.729938,55.0510011 L589.729938,55.0510011 L583.107,46.902 Z M592.453,48.557 L598.294,49.592 L602.729938,55.0510011 L597.729938,55.0510011 L592.453,48.557 Z M601.798,50.213 L607.639,51.248 L610.729938,55.0510011 L605.729938,55.0510011 L601.798,50.213 Z M611.143,51.869 L616.984,52.904 L618.729938,55.0510011 L613.729938,55.0510011 L611.143,51.869 Z" id="形状结合" stroke="none" fill="url(#linearGradient-18)" fill-rule="evenodd" opacity="0.400000006" transform="translate(558.864969, 43.525501) scale(-1, -1) translate(-558.864969, -43.525501) "></path>
                    </g>
                </g>
                <g id="矩形" mask="url(#mask-2)">
                    <use fill="black" fill-opacity="1" filter="url(#filter-21)" xlink:href="#path-20"></use>
                    <path stroke="url(#linearGradient-19)" stroke-width="1" d="M1266.24054,8.5 L654.31975,8.5 L624.634508,46.003998 L654.32365,84.5 L1266.23665,84.5 L1297.35375,46.0041142 L1266.24054,8.5 Z" stroke-linejoin="square" fill-opacity="0.1" fill="#4466F4" fill-rule="evenodd"></path>
                </g>
                <path d="M1259.49931,14.5 L658.350925,14.5 L633.636819,45.9983636 L658.349338,77.1635587 L1259.50089,77.1635587 L1286.34161,45.9982809 L1259.49931,14.5 Z" id="矩形" stroke="url(#linearGradient-23)" fill-opacity="0.7" fill="url(#linearGradient-22)" mask="url(#mask-2)"></path>
            </g>
        </g>
    </g>
</svg>