<svg id="图层_1" xmlns="http://www.w3.org/2000/svg" viewBox="0 0 6160 2447.3"><style>.st0{fill:#fff}</style><path class="st0" d="M3663.8 726.4v845.1h225.1c113.3 0 164.2-43.2 164.2-153.9V726.4h-389.3zm130.6 132h125.9v225.5h-125.9V858.4zm104 575.8c-7.4 2-17.2 3-30.2 3h-73.7v-221.3h125.8v176.2c0 33.8-11.2 38.7-21.9 42.1"/><path class="st0" d="M4574.6 785V636.8h-135.4V785h-292.9v621.5c-.3 184.2-103.1 215.4-158.7 232.9v133.9s298.2-27 296.5-378.3V921.6h521V785h-230.5zM5906.7 1504.6v87.6c0 32.8-4.5 45.1-52.1 45.1H5821c-44.9 0-49.8-9.3-49.8-46.3v-294.1h-54.4c8.3-43 12.7-92.1 13.9-152.4 1.1-40 3.5-241.6 3.5-241.6h-137.7v234.3c0 215.6-72.1 347.5-268.8 475.4v160.6l8.2-5.1c147.9-91.2 241.3-173.3 301.2-266.3v115.9c0 103.6 45.8 153.9 140.1 153.9h98.4c113.3 0 157.4-43.2 157.4-153.9v-113.1h-126.3zM5245.5 1117.5c41.7-70.9 63.7-143.4 63.7-210.4V785.6h-115.8V637.4H5058v148.2h-163.2v136.6h270.9c-7.7 130.5-189 288.7-264.7 307.7v158.6s82.7-14.4 161.7-70.2v454.5h135.5v-523l112.7 108V1182l-65.4-64.5z"/><path class="st0" d="M5822.2 677h-104.5l-359.9.2v670.6H5492V811.3h309.3c47.6 0 52.1 12.4 52.1 45.1v489.4h132.9V830.9c0-110.7-50.9-153.9-164.1-153.9"/><g><path class="st0" d="M2588.4 744.8l-87.2 524.4h-61.6l-86.5-524.4h-147.6l166.9 926.6h193.8l169.9-926.6zM757.1 744.8l-101 524.4H605L499.8 744.8H297.6v927.4h140.9v-403h51.7l84.7 403h113.3l75.7-403h46.5v403h140.9V744.8zM1044 1673.7V743.3h476.9v142.1h-335.6v241.3h265.3v142.1h-265.3v255.6h335.6v149.3zM2829.6 744.8h141.3v927.4h-141.3zM3063.6 744.8h141.3v927.4h-141.3zM2112.7 887.4V744.8h-427.9s-71.2 1.8-71.2 71.4l.1 856c108.1.5 375.3 0 427.7 0 73.4 0 71.2-71.2 71.2-71.2v-478.1h-228.3v146.3h85.6v260.5h-214V887.4h356.8z"/></g><path class="st0" d="M3398.6 513v-8.2H104v1400.4h3294.6V513zM136.8 535.1h3229.1v1340H136.8v-1340z"/></svg>