<svg id="图层_1" data-name="图层 1" xmlns="http://www.w3.org/2000/svg" xmlns:xlink="http://www.w3.org/1999/xlink" viewBox="0 0 72 72"><defs><style>.cls-1{fill:url(#未命名的渐变_4);}.cls-2{fill-opacity:0.73;fill:url(#未命名的渐变_5);}</style><linearGradient id="未命名的渐变_4" x1="-1016.35" y1="955.48" x2="-1016.35" y2="956.14" gradientTransform="translate(111834 -105103.17) scale(110)" gradientUnits="userSpaceOnUse"><stop offset="0" stop-color="#d1e4ff"/><stop offset="1" stop-color="#ecf7fa"/></linearGradient><radialGradient id="未命名的渐变_5" cx="-1037.13" cy="954.01" r="0.73" gradientTransform="matrix(0, -78.57, 163.75, 0, -156180.02, -81427.24)" gradientUnits="userSpaceOnUse"><stop offset="0" stop-color="#81b4ff" stop-opacity="0.23"/><stop offset="1" stop-color="#21539b"/></radialGradient></defs><title>icon</title><rect id="Rectangle-2" class="cls-1" width="72" height="72"/><path id="Fill-2" class="cls-2" d="M32,11l.4.8-1.6-.4-1.8,1L28,14l-2.6,1.8-2.8,4,.8-.2-.8,1.3s-.3.3-.4,2.2l.6-.2-.4,1.8.4-.3.2,2.4.6,2.4-1,.4L22.1,31l1.2,4.4,1,.8h.8l1.4,4.5,1,2,.2,4.4s-1.3,5.1-5,6.1-6.1,2.3-10.3,3.2c-2.8.6-4.2,2-4.2,5.3H64.7S64,58,61.3,57c-4-1.6-8.7-2.4-12.1-3.6-2.6-.9-4.8-6.5-4.8-6.5l-.2-4.5.6-1.6,1.6-5.3.6.2.8-.6,1-3.8-.2-1.8-1-.6L49,24s-.8-6.3-5.4-8.1a12.53,12.53,0,0,0-10.7-5.5l1.2,1.4Z"/></svg>