<?xml version="1.0" encoding="UTF-8"?>
<svg width="14px" height="14px" viewBox="0 0 14 14" version="1.1" xmlns="http://www.w3.org/2000/svg" xmlns:xlink="http://www.w3.org/1999/xlink">
    <title>编组 2备份 3</title>
    <defs>
        <linearGradient x1="59.610601%" y1="41.244355%" x2="30.9771729%" y2="72.139344%" id="linearGradient-1">
            <stop stop-color="#D2D2F4" offset="0%"></stop>
            <stop stop-color="#FFFFFF" offset="100%"></stop>
        </linearGradient>
        <linearGradient x1="37.5890043%" y1="50%" x2="57.9530928%" y2="38.1674338%" id="linearGradient-2">
            <stop stop-color="#001746" offset="0%"></stop>
            <stop stop-color="#0041C6" offset="100%"></stop>
        </linearGradient>
        <linearGradient x1="50%" y1="43.0696368%" x2="60.9658487%" y2="56.3239735%" id="linearGradient-3">
            <stop stop-color="#FFFFFF" offset="0%"></stop>
            <stop stop-color="#F5F6FF" offset="65.5088682%"></stop>
            <stop stop-color="#CDD0E8" offset="78.1170819%"></stop>
            <stop stop-color="#CDD0E8" offset="100%"></stop>
        </linearGradient>
    </defs>
    <g id="控件" stroke="none" stroke-width="1" fill="none" fill-rule="evenodd">
        <g id="treeselect/checkbox_icon" transform="translate(-105.000000, -208.000000)">
            <g id="编组-2备份-3" transform="translate(105.000000, 208.000000)">
                <circle id="椭圆形" fill="#CACDD3" cx="7" cy="7" r="7"></circle>
                <path d="M1.8048967,6.19738752 L1.8048967,9.60166977 C1.8048967,9.80063587 1.91461518,9.9833866 2.09022475,10.0769216 L5.21893902,11.7433694 C5.39137468,11.8352139 5.60003069,11.8264518 5.76415917,11.7204739 L11.1595142,8.23669055 C11.6664112,7.9093869 11.9984495,7.37073105 12.0631054,6.77082117 L12.2973889,4.59702314 L12.2973889,4.59702314 L1.8048967,6.19738752 Z" id="路径-8" stroke="#7078BE" stroke-width="0.5"></path>
                <g id="编组-2-copy" transform="translate(0.759615, 2.692308)">
                    <path d="M0.233671988,2.34497045 L1.40203193,2.33671988 L1.3924732,3.50507983 C0.922298817,3.43460922 0.650042312,3.39700054 0.575703687,3.39225379 C0.531775936,3.38944887 0.411129711,3.37623017 0.361400038,3.35885223 C0.33844837,3.35083181 0.302565363,3.33744347 0.253751017,3.31868719 L0.233671988,2.34497045 Z" id="路径-5备份-2" fill="#E6E8F2"></path>
                    <g id="编组" transform="translate(0.934688, 2.336720)">
                        <path d="M0.260141043,0.072580697 C0.368600884,0.000971736252 0.537054943,0.000971736252 0.765503219,0.072580697 L3.69979601,1.35518032 C3.88736017,1.4447049 4.02668131,1.53930067 4.11775943,1.63896763 C4.20883756,1.73863459 4.25437662,1.87704233 4.25437662,2.05419085 L4.25437662,6.28427114 C4.22891447,6.50473743 4.14245317,6.64434197 3.9949927,6.70308474 C3.84753224,6.76182751 3.68583214,6.74413441 3.5098924,6.65000543 L0.558252104,5.08114418 C0.41727021,5.00817708 0.318666469,4.92434659 0.262440882,4.82965274 C0.206215295,4.73495888 0.178102502,4.58154086 0.178102502,4.36939869 L0.111748269,0.832859822 C0.102216944,0.397616033 0.151681202,0.144189658 0.260141043,0.072580697 Z" id="矩形" fill="url(#linearGradient-1)"></path>
                        <g id="编组-3" transform="translate(0.463756, 1.509171)">
                            <path d="M2.74507958,1.30169493 C3.22629582,2.26053275 3.09920904,3.38133762 2.4612268,3.80507009 C1.8232226,4.22880257 0.915930627,3.79501191 0.434714388,2.83617409 C-0.0465238204,1.87733627 0.080562961,0.756531399 0.718545194,0.332798925 C1.3565494,-0.0909335487 2.26384137,0.342857106 2.74507958,1.30169493" id="Fill-1" fill="url(#linearGradient-2)"></path>
                            <path d="M2.2432215,2.29790926 C2.18657131,2.48636997 1.98479996,1.86940997 1.63606521,1.48448923 C1.28733045,1.09956849 1.33921448,0.736805742 1.63981936,0.922495056 C1.81111316,1.02830648 1.96695849,1.18057497 2.08490126,1.37061787 C2.2776664,1.68123733 2.32586157,2.02298687 2.2432215,2.29790926 Z" id="Fill-1" fill="#FFFFFF"></path>
                        </g>
                    </g>
                    <path d="M6.90411455,3.629841 L11.9272126,2.20672752 L11.8856299,3.21324642 C11.846244,3.96868783 11.6603531,4.58543668 11.3279572,5.06349298 C10.9955612,5.54154927 10.3240718,6.0547174 9.3134888,6.60299738 L6.47143641,8.32635427 L6.90411455,3.629841 Z" id="矩形备份-5" fill="#8A92D4"></path>
                    <path d="M4.9858092,4.41497248 L6.77648766,4.20609579 L6.77648766,7.71697948 C6.77648766,7.92499634 6.76403945,8.05951415 6.73914302,8.12053289 C6.7142466,8.18155163 6.65153018,8.24565108 6.55099377,8.31283123 C5.65566063,8.7589666 5.15349378,9.00521512 5.04449322,9.05157682 C4.8327926,9.14162039 4.63121745,9.13299754 4.43976778,9.02570827 C4.6440035,9.03803715 4.78577923,9.0010932 4.86509496,8.91487643 C4.9444107,8.82865965 4.98464877,8.6786065 4.9858092,8.46471697 L4.9858092,4.41497248 Z" id="矩形备份-5" fill="#7078BE"></path>
                    <path d="M0.0464191155,2.25805362 C0.0815905222,2.18164755 0.250575036,2.11548084 0.553372656,2.05955349 C2.37309504,1.581976 3.80306682,1.22179537 4.84328802,0.979011597 C5.88350921,0.736227827 6.97133341,0.508764209 8.10676063,0.296620744 C8.34912554,0.243542878 8.58027876,0.217003945 8.80022029,0.217003945 C9.02016183,0.217003945 9.27802115,0.257843075 9.57379824,0.339521335 C9.85100832,0.414189412 10.1415082,0.511147859 10.445298,0.630396675 C10.7490878,0.749645492 11.0010696,0.865850466 11.2012435,0.979011597 C11.5462819,1.17075587 11.7569035,1.31577317 11.8331082,1.4140635 C11.9093129,1.51235382 11.9435506,1.67202177 11.9358213,1.89306735 L11.9026281,2.97980175 L7.05408804,4.95471203 L4.24251186,5.14078374 C4.17845951,5.13384998 4.12778119,5.11600195 4.09047688,5.08723967 C4.05317258,5.05847739 4.03050942,5.01977783 4.02248742,4.97114098 L3.9781746,4.35413236 C3.97369312,4.25399729 3.95651538,4.17100647 3.9266414,4.10515992 C3.89676741,4.03931336 3.82698083,3.9792029 3.71728164,3.92482853 L0.594480875,2.32747029 C0.527785261,2.29326112 0.423564815,2.27615654 0.281819537,2.27615654 C0.140074259,2.27615654 0.0631387633,2.37958946 0.0510130507,2.58645531 C0.0127790205,2.44392691 0.0112477087,2.33445968 0.0464191155,2.25805362 Z" id="路径-5" fill="url(#linearGradient-3)"></path>
                    <path d="M0.0210697974,2.54694148 C0.00684503269,2.35365664 0.0385664096,2.23270924 0.116233928,2.18409928 C0.193901447,2.13548933 0.278983512,2.1228388 0.371480124,2.1461477 L3.76091559,3.70990418 C3.91937084,3.7578212 4.0354171,3.8394248 4.10905436,3.95471499 C4.18269163,4.07000517 4.21442066,4.23283877 4.20424145,4.44321577 L4.1948183,4.91624429 C4.18796052,5.04213534 4.19110157,5.11548789 4.20424145,5.13630196 C4.21738133,5.15711603 4.11615879,5.1054324 3.90057381,4.98125107 C4.1133311,5.10825243 4.18759984,5.15327588 4.12338004,5.11632142 C4.07369973,5.08773353 4.01082457,5.05179461 3.93475456,5.00850465 C3.92626205,5.00367173 3.9023893,4.98341532 3.88549507,4.94498703 C3.86860083,4.90655873 3.8640682,4.85322706 3.86367884,4.8248816 C3.8591658,4.49632641 3.83765756,4.29022472 3.79915412,4.20657652 C3.75531212,4.11133037 3.65609515,4.02737653 3.50150319,3.95471499 L1.02468807,2.78647359 C0.706020116,2.64075381 0.513694455,2.56090977 0.447711089,2.54694148 C0.381727722,2.53297319 0.346502994,2.5732231 0.342036903,2.66769122 L0.342771344,3.26249741 L0.424576176,3.36847377 C0.399981621,3.36691979 0.37246853,3.36303043 0.342036903,3.3568057 C0.311605276,3.35058096 0.230603354,3.31110621 0.0990311378,3.23838143 C0.0725378926,3.22419609 0.0536574747,3.20720858 0.0423898839,3.18741887 C0.031122293,3.16762917 0.0240155976,3.14508961 0.0210697974,3.11980019 L0.0210697974,2.54694148 Z" id="矩形" fill="#FFFFFF"></path>
                </g>
            </g>
        </g>
    </g>
</svg>