<?xml version="1.0" encoding="utf-8"?>
<!-- Generator: Adobe Illustrator 24.0.0, SVG Export Plug-In . SVG Version: 6.00 Build 0)  -->
<svg version="1.1" id="图层_1" xmlns="http://www.w3.org/2000/svg" xmlns:xlink="http://www.w3.org/1999/xlink" x="0px" y="0px"
	 viewBox="0 0 24 24" style="enable-background:new 0 0 24 24;" xml:space="preserve">
<style type="text/css">
	.st0{fill-rule:evenodd;clip-rule:evenodd;fill:#33729B;}
	.st1{fill:#FFFFFF;}
	.st2{fill:#33729B;}
</style>
<path id="Fill-1" class="st0" d="M12,3.3c4.8,0,8.7,3.9,8.7,8.7c0,4.8-3.9,8.7-8.7,8.7S3.3,16.8,3.3,12C3.3,7.2,7.2,3.3,12,3.3"/>
<path id="Combined-Shape" class="st1" d="M12.1,21.3c-0.3,0-0.5-0.2-0.5-0.5s0.2-0.5,0.5-0.5c0.3,0,0.6,0,0.9-0.1
	c0.3,0,0.5,0.2,0.6,0.4c0,0.3-0.2,0.5-0.4,0.6C12.8,21.3,12.4,21.3,12.1,21.3z M16.2,20.3c-0.2,0.1-0.5,0-0.7-0.2
	c-0.1-0.2,0-0.5,0.2-0.7c0.3-0.1,0.6-0.3,0.8-0.5c0.2-0.2,0.5-0.1,0.7,0.1c0.2,0.2,0.1,0.5-0.1,0.7C16.8,20,16.5,20.2,16.2,20.3z
	 M19.4,17.7c-0.2,0.2-0.5,0.3-0.7,0.1c-0.2-0.2-0.3-0.5-0.1-0.7c0.2-0.2,0.4-0.5,0.5-0.8c0.1-0.2,0.4-0.3,0.7-0.2
	c0.2,0.1,0.3,0.4,0.2,0.7C19.8,17.1,19.6,17.4,19.4,17.7z M21.1,13.8c-0.1,0.3-0.3,0.4-0.6,0.4c-0.3-0.1-0.4-0.3-0.4-0.6
	c0.1-0.3,0.1-0.6,0.1-0.9c0-0.3,0.3-0.5,0.5-0.5s0.5,0.3,0.5,0.5C21.2,13.1,21.2,13.4,21.1,13.8z M21,9.6c0.1,0.3-0.1,0.5-0.4,0.6
	s-0.5-0.1-0.6-0.4c-0.1-0.3-0.2-0.6-0.3-0.9c-0.1-0.3,0-0.5,0.3-0.6c0.3-0.1,0.5,0,0.6,0.3C20.8,9,20.9,9.3,21,9.6z M19,5.9
	c0.2,0.2,0.2,0.5,0,0.7s-0.5,0.2-0.7,0c-0.2-0.2-0.4-0.5-0.7-0.7c-0.2-0.2-0.2-0.5,0-0.7C17.7,5,18,5,18.2,5.2
	C18.5,5.4,18.7,5.7,19,5.9z M15.5,3.5c0.3,0.1,0.4,0.4,0.3,0.7c-0.1,0.3-0.4,0.4-0.7,0.3c-0.3-0.1-0.6-0.2-0.9-0.3
	c-0.3-0.1-0.4-0.3-0.3-0.6c0.1-0.3,0.3-0.4,0.6-0.3C14.9,3.3,15.2,3.4,15.5,3.5z M11.4,2.9c0.3,0,0.5,0.2,0.5,0.5s-0.2,0.5-0.5,0.5
	c-0.3,0-0.6,0.1-0.9,0.1C10.3,4,10,3.8,10,3.6C9.9,3.3,10.1,3,10.4,3C10.7,2.9,11,2.9,11.4,2.9z M7.4,4.1C7.6,4,7.9,4,8.1,4.3
	C8.2,4.5,8.1,4.8,7.9,5C7.6,5.1,7.4,5.3,7.1,5.5C6.9,5.7,6.6,5.6,6.4,5.4S6.3,4.9,6.5,4.7C6.8,4.5,7.1,4.3,7.4,4.1z M4.3,7
	C4.5,6.8,4.8,6.7,5,6.9C5.3,7,5.3,7.3,5.2,7.6C5,7.8,4.8,8.1,4.7,8.4C4.6,8.6,4.3,8.7,4,8.6C3.8,8.5,3.7,8.2,3.8,7.9
	C4,7.6,4.1,7.3,4.3,7z M2.9,11c0-0.3,0.3-0.5,0.6-0.4s0.5,0.3,0.4,0.6c0,0.3-0.1,0.6-0.1,0.9c0,0.3-0.2,0.5-0.5,0.5
	c-0.3,0-0.5-0.2-0.5-0.5C2.8,11.7,2.9,11.3,2.9,11z M3.4,15.1c-0.1-0.3,0-0.5,0.3-0.6s0.5,0,0.6,0.3c0.1,0.3,0.2,0.6,0.4,0.9
	c0.1,0.2,0,0.5-0.2,0.7c-0.2,0.1-0.5,0-0.7-0.2C3.6,15.8,3.5,15.5,3.4,15.1z M5.6,18.7c-0.2-0.2-0.2-0.5,0-0.7
	c0.2-0.2,0.5-0.2,0.7,0c0.2,0.2,0.5,0.4,0.7,0.6c0.2,0.2,0.3,0.5,0.1,0.7c-0.2,0.2-0.5,0.3-0.7,0.1C6.1,19.1,5.9,18.9,5.6,18.7z
	 M9.2,20.8c-0.3-0.1-0.4-0.4-0.3-0.6c0.1-0.3,0.4-0.4,0.6-0.3c0.3,0.1,0.6,0.2,0.9,0.2c0.3,0.1,0.4,0.3,0.4,0.6
	c-0.1,0.3-0.3,0.4-0.6,0.4C9.9,21,9.6,21,9.2,20.8z M12.2,17.8c1.7,0,3.1,1.4,3.1,3.1c0,1.7-1.4,3.1-3.1,3.1s-3.1-1.4-3.1-3.1
	C9.1,19.2,10.5,17.8,12.2,17.8z M3.3,9.1c1.7,0,3.1,1.4,3.1,3.1S5,15.2,3.3,15.2s-3.1-1.4-3.1-3.1S1.6,9.1,3.3,9.1z M20.9,9.1
	c1.7,0,3.1,1.4,3.1,3.1s-1.4,3.1-3.1,3.1c-1.7,0-3.1-1.4-3.1-3.1S19.2,9.1,20.9,9.1z M12.2,0.2c1.7,0,3.1,1.4,3.1,3.1
	s-1.4,3.1-3.1,3.1S9.1,5,9.1,3.3S10.5,0.2,12.2,0.2z"/>
<path id="Combined-Shape_1_" class="st2" d="M12.2,18.9c1.1,0,2,0.9,2,2s-0.9,2-2,2s-2-0.9-2-2S11.1,18.9,12.2,18.9z M3.3,10.2
	c1.1,0,2,0.9,2,2s-0.9,2-2,2s-2-0.9-2-2S2.2,10.2,3.3,10.2z M20.9,10.2c1.1,0,2,0.9,2,2s-0.9,2-2,2s-2-0.9-2-2S19.8,10.2,20.9,10.2z
	 M12.2,1.3c1.1,0,2,0.9,2,2s-0.9,2-2,2s-2-0.9-2-2S11.1,1.3,12.2,1.3z"/>
</svg>
