<?xml version="1.0" encoding="UTF-8"?>
<svg width="17px" height="36px" viewBox="0 0 17 36" version="1.1" xmlns="http://www.w3.org/2000/svg" xmlns:xlink="http://www.w3.org/1999/xlink">
    <title>箭头</title>
    <g id="二次检索拖拽引导_slice_20210107" stroke="none" stroke-width="1" fill="none" fill-rule="evenodd">
        <g id="click" transform="translate(-235.000000, -292.000000)" fill="#FFFFFF" fill-rule="nonzero">
            <g id="编组-7" transform="translate(173.000000, 292.000000)">
                <g id="编组-3" transform="translate(62.000000, 0.000000)">
                    <path d="M17.0274384,0.222541196 L11.4994897,7.9054016 L11.2689997,3.78863226 C5.20678301,7.67788117 2.12478984,12.4494994 1.97122232,18.1292689 C1.8871089,21.2402444 3.15772934,24.3583853 5.08249771,26.5657547 L5.19030663,26.6870767 L5.29752865,26.5533291 C5.64826467,26.1233608 6.00958681,25.7200087 6.3775613,25.3493398 L6.65472801,25.0775611 C7.97936859,23.8139908 9.23450212,23.1396716 10.2533212,23.2571422 C11.4759902,23.3981168 12.1126713,24.5691752 12.1220858,26.5589365 C12.1406543,30.4833926 9.30770804,31.2620277 6.1701487,28.9359853 C5.89844894,28.7345596 5.63332067,28.5177057 5.37579915,28.2867698 L5.2945319,28.2115287 L5.26771055,28.2487111 C3.72637082,30.440601 2.49454792,33.1359114 2.03209283,35.6193259 L1.96553428,36.0095787 L0.977275665,35.8567883 C1.40823154,33.0693366 2.78151473,30.0121312 4.52789624,27.5631128 L4.57573684,27.4974253 L4.38873626,27.291114 C2.34863381,24.9849632 0.983560454,21.7559256 0.967424698,18.480349 L0.971587632,18.1022411 C1.13178589,12.1772308 4.2846823,7.19274595 10.3812396,3.17319438 L7.87117643,1.66425792 L17.0274384,0.222541196 Z M7.3449581,25.8011511 C6.89220531,26.2330305 6.4474785,26.7206306 6.01915812,27.2509152 L5.89558233,27.4058946 L6.01474965,27.5165279 C6.17701602,27.6630976 6.34251532,27.8034424 6.51092866,27.9371447 L6.76569435,28.1326638 C9.32116859,30.0271751 11.1361243,29.5283346 11.122097,26.5636679 C11.1147797,25.0171585 10.7353956,24.3193509 10.1387793,24.2505606 C9.49384446,24.1761991 8.47412521,24.7240423 7.3449581,25.8011511 Z" id="形状结合"></path>
                </g>
            </g>
        </g>
    </g>
</svg>