<?xml version="1.0" encoding="UTF-8"?>
<svg width="16px" height="16px" viewBox="0 0 16 16" version="1.1" xmlns="http://www.w3.org/2000/svg" xmlns:xlink="http://www.w3.org/1999/xlink">
    <title>形状结合</title>
    <g id="二次检索拖拽引导_slice_20210107" stroke="none" stroke-width="1" fill="none" fill-rule="evenodd">
        <g id="click" transform="translate(-288.000000, -431.000000)">
            <g id="编组-9" transform="translate(200.000000, 423.000000)">
                <rect id="矩形" stroke="#FFFFFF" x="0.5" y="0.5" width="119" height="31" rx="2"></rect>
                <path d="M96,8 C100.418222,8 104,11.5817778 104,16 C104,20.4184444 100.418222,24 96,24 C91.5817778,24 88,20.4184444 88,16 C88,11.5817778 91.5817778,8 96,8 Z M96,9.66644444 C92.502,9.66644444 89.6662222,12.502 89.6662222,16 C89.6662222,19.498 92.502,22.3337778 96,22.3337778 L96,22.3337778 C99.4971111,22.3315556 102.332444,19.4971111 102.333556,16 C102.333556,12.502 99.498,9.66644444 96,9.66644444 Z M98.2536889,12.8000889 L99.3919111,13.9358667 L97.1176889,16.2103111 L99.3919111,18.4823111 L98.2536889,19.6205333 L95.9816889,17.3463111 L93.7074667,19.6205333 L92.5714667,18.4823111 L94.8434667,16.2103111 L92.5714667,13.9358667 L93.7074667,12.8000889 L95.9816889,15.0720889 L98.2536889,12.8000889 Z" id="形状结合" fill="#FFFFFF"></path>
            </g>
        </g>
    </g>
</svg>