<?xml version="1.0" encoding="UTF-8"?>
<svg width="240px" height="240px" viewBox="0 0 240 240" version="1.1" xmlns="http://www.w3.org/2000/svg" xmlns:xlink="http://www.w3.org/1999/xlink">
    <title>人机非</title>
    <defs>
        <linearGradient x1="50%" y1="-2.48949813e-15%" x2="50%" y2="100%" id="linearGradient-1">
            <stop stop-color="#D1E4FF" offset="0%"></stop>
            <stop stop-color="#ECF7FA" offset="100%"></stop>
        </linearGradient>
        <radialGradient cx="50%" cy="0%" fx="50%" fy="0%" r="62.5380099%" gradientTransform="translate(0.500000,0.000000),scale(0.967391,1.000000),rotate(180.000000),scale(1.000000,1.494413),translate(-0.500000,-0.000000)" id="radialGradient-2">
            <stop stop-color="#5E85BC" stop-opacity="0.45350743" offset="0%"></stop>
            <stop stop-color="#5E85BC" stop-opacity="0.113827579" offset="100%"></stop>
        </radialGradient>
        <linearGradient x1="50%" y1="105.330987%" x2="50%" y2="0%" id="linearGradient-3">
            <stop stop-color="#5E86BC" stop-opacity="0.48" offset="0%"></stop>
            <stop stop-color="#5F86BC" offset="100%"></stop>
        </linearGradient>
    </defs>
    <g id="人机非" stroke="none" stroke-width="1" fill="none" fill-rule="evenodd">
        <polygon id="Rectangle-2" fill="url(#linearGradient-1)" points="0 0 240 0 240 240 0 240"></polygon>
        <path d="M121.490625,138.5 L121.490625,183.5 L120.009375,183.5 L120.009375,138.5 L121.490625,138.5 Z M119.98125,113.886446 L122.076054,115.98125 L119.98125,118.076054 L117.886446,115.98125 L119.98125,113.886446 Z M141,115.25 L189,115.25 L189,116.75 L141,116.75 L141,115.25 Z M99,115.259375 L99,116.740625 L51,116.740625 L51,115.259375 L99,115.259375 Z M121.5,50 L121.5,95 L120,95 L120,50 L121.5,50 Z" id="形状结合" fill-opacity="0.6" fill="url(#radialGradient-2)" fill-rule="nonzero"></path>
        <path d="M68.0916667,144.5 L69.025,147.409639 L72.6416667,147.944062 L72.35,149.487952 L66.8083333,148.894148 C65.7,151.506885 63.25,156.376076 62.8416667,157.207401 C62.6666667,157.860585 62.3166667,159.701377 63.0166667,160.770224 C64.3,162.907917 67.7416667,164.689329 69.4916667,164.986231 C69.9,165.045611 70.4833333,165.104991 71.2416667,165.104991 C73.225,165.104991 75.2083333,164.86747 75.675,164.80809 C76.012931,164.464093 75.8614447,162.016576 75.3255501,159.603418 L75.2666667,159.345095 L75.0916667,158.69191 L87.9833333,158.69191 C89.6872807,159.154452 92.2207814,164.852543 92.8375773,166.193602 L92.8833333,166.292599 L93,166.589501 L92.825,166.827022 C92.475,167.302065 91.6583333,167.777108 90.55,168.192771 C91.5416667,169.320998 92.125,170.805508 92.125,172.468158 C92.125,176.090361 89.2666667,179 85.7083333,179 C82.15,179 79.2916667,176.090361 79.2916667,172.468158 C79.2916667,171.814974 79.4083333,171.22117 79.5833333,170.627367 C77.3666667,170.686747 73.9833333,170.805508 71.0083333,170.805508 C67.1583333,170.805508 66.2833333,170.627367 65.9333333,170.508606 C65.4472222,170.310671 64.9206019,170.030264 64.4209877,169.701747 L64.125,169.499139 L63.4833333,169.499139 C63.95,170.389845 64.1833333,171.399312 64.1833333,172.468158 C64.1833333,176.090361 61.325,179 57.7666667,179 C54.2083333,179 51.35,176.090361 51.35,172.468158 C51.35,171.043029 51.8166667,169.736661 52.5166667,168.667814 C51.5322917,168.445138 51.1118815,168.170271 51.0151103,167.74536 L51,167.658348 L51,167.420826 L51.175,167.242685 C52.8666667,165.348451 55.0489167,163.121291 55.9829046,162.974918 L56.075,162.967298 L58.2916667,162.967298 C57.3583333,160.473322 57.5333333,157.979346 57.5916667,157.860585 C57.9316667,154.803344 61.3543333,149.784854 62.726083,147.867538 L62.8416667,147.70654 L62.8416667,144.5 L68.0916667,144.5 Z M178.78175,147.5 L184.170583,154.663022 L184.67225,152.889957 L188.993,152.889957 L189,155.909601 L185.149417,155.909601 L188.007167,159.266648 L188.007167,177.5 L181.049167,177.5 L181.049167,174.670004 L154.944417,174.670004 L154.944417,177.5 L147.989333,177.5 L147.989333,159.266648 L150.843583,155.909601 L147,155.909601 L147,152.88656 L151.32075,152.88656 L151.822417,154.660191 L157.201333,147.5 L178.78175,147.5 Z M57.7666667,169.796041 C56.3083333,169.796041 55.1416667,170.983649 55.1416667,172.468158 C55.1416667,173.952668 56.3083333,175.140275 57.7666667,175.140275 C59.225,175.140275 60.3916667,173.952668 60.3916667,172.468158 C60.3916667,170.983649 59.225,169.796041 57.7666667,169.796041 Z M85.7083333,169.796041 C84.25,169.796041 83.0833333,170.983649 83.0833333,172.468158 C83.0833333,173.952668 84.25,175.140275 85.7083333,175.140275 C87.1666667,175.140275 88.3333333,173.952668 88.3333333,172.468158 C88.3333333,170.983649 87.1666667,169.796041 85.7083333,169.796041 Z M180.018417,167.927038 L155.975167,167.927038 L156.741083,171.516191 L179.255417,171.516191 L180.018417,167.927038 Z M184.9645,160.966684 L175.391417,163.793284 L175.10675,165.340469 L184.102333,165.340469 L184.9645,160.966684 Z M151.022083,160.959891 L151.89475,165.340469 L160.886833,165.340469 L160.595167,163.790453 L151.022083,160.959891 Z M177.328667,149.86352 L158.664333,149.86352 L152.98325,157.923263 L182.786917,157.923263 L177.328667,149.86352 Z M88.2749417,155.129147 L88.2749417,157.504362 L74.9749417,157.504362 L74.9749417,155.129147 L88.2749417,155.129147 Z M161.328628,53.0673974 C161.494354,53.1303971 161.593909,53.2125966 161.775135,53.2869962 C162.051743,53.4003956 162.010014,53.4945951 162.234162,53.679994 C162.441618,53.8521931 162.843415,53.8899929 163.019872,54.957987 C163.019872,54.957987 162.969796,56.1735803 162.840434,56.3517794 C162.840434,56.3517794 162.89349,56.3217795 162.89349,56.4345789 C162.89349,56.5473783 162.905413,57.0459755 162.86428,57.1293751 C162.82255,57.2121746 162.72836,57.5799726 162.622844,57.5967725 C162.538788,57.6099724 162.433868,57.6213724 162.386177,57.5565727 C162.339082,57.4911731 162.376043,58.0755699 162.298545,58.1961692 C162.26993,58.241169 162.299141,58.4409679 162.312852,58.6365668 C162.331332,58.8909654 162.343851,59.1579639 162.353985,59.2683633 C162.353985,59.2683633 162.532827,59.3631628 162.739687,59.4789621 C162.946547,59.5947615 163.181425,59.7327608 163.351921,59.7717605 C163.582626,59.8245602 165.656591,60.6555557 166.025004,61.0047538 C166.622335,61.5711506 167.015786,64.0851368 167.210127,65.8479271 C167.405064,67.6107174 167.670346,67.6107174 167.564233,68.9109103 C167.45812,70.2105031 167.440236,71.7062949 167.476005,71.8844939 C167.506408,72.0380931 167.553503,72.2510919 167.560656,72.3146915 C167.561252,72.3248915 167.556483,72.3362914 167.554099,72.3380914 C167.511177,72.3608913 167.307297,72.3470914 167.225627,72.3470914 C167.158859,72.3470914 167.193435,73.5926845 167.157071,73.9388826 C167.119514,74.2934807 167.222646,75.0350766 167.116533,75.2012757 C167.010421,75.3674747 166.835156,75.861272 166.66168,76.0214712 C166.500126,76.1702703 166.168674,76.4294689 166.111444,76.4738687 C166.053619,76.5194684 165.92843,76.6082679 165.859874,76.599868 C165.768665,76.587868 165.726935,76.5614682 165.729916,76.4960685 C165.729916,76.4960685 165.562997,76.5116685 165.520671,76.4930686 C165.47298,76.4720687 165.457481,76.405469 165.492653,76.3214695 C165.517095,76.2614698 165.858682,76.1420705 165.942737,76.0742709 C166.023812,76.0094712 166.184173,75.9128717 166.193115,75.8240722 C166.202057,75.7346727 166.149001,75.7826725 166.119194,75.7946724 C166.089387,75.8060723 166.066138,75.8048723 166.010697,75.8102723 C165.952872,75.8162723 165.576112,75.8204723 165.570747,75.7976724 C165.555247,75.7304728 165.571343,75.6434732 165.614861,75.6212734 C165.661956,75.5972735 165.700705,75.5876735 165.700705,75.5876735 C165.700705,75.5876735 165.673879,75.5294739 165.644072,75.4376744 C165.614861,75.3458749 165.634534,75.0404765 165.670898,74.9768769 C165.72157,74.8892774 165.782972,74.7512781 165.836625,74.6978784 C165.889085,74.6444787 165.918892,74.4662797 165.918892,74.3534803 C165.918892,74.2406809 165.915911,73.7732835 165.949891,73.6736841 C165.983104,73.5759703 166.042596,73.3076616 166.143384,73.1865217 L166.197288,73.139687 L166.213384,72.4730907 C166.213384,72.4730907 166.208615,72.4640907 166.200269,72.4652907 C166.176423,72.4694907 166.126348,72.4772906 166.106675,72.4772906 C166.103695,72.4772906 166.099522,72.4742907 166.098329,72.4700907 C166.063157,72.3164915 165.617246,69.3993076 165.600554,69.0177097 C165.58267,68.6259118 165.670898,68.0025153 165.58267,67.682117 C165.494441,67.3617188 164.963282,64.8153328 164.99905,64.5129345 C165.034223,64.2099361 165.0068,63.7107389 164.963282,63.7467387 C164.85717,63.8361382 164.839882,64.1919362 164.804113,64.3347354 C164.768941,64.4769347 164.662829,67.2549194 164.698001,67.5927175 C164.733173,67.9311157 164.910226,68.7507111 164.892938,69.142509 C164.875054,69.5337068 165.211276,70.9940988 165.193392,71.9024938 C165.176104,72.8102888 165.405617,73.2914862 165.388329,73.4870851 C165.370445,73.682684 165.635726,74.234681 165.441385,74.3594803 C165.246448,74.4842796 165.25539,74.4260799 165.224391,74.4572798 C165.193392,74.4884796 165.376406,76.3298695 165.117086,77.3390639 C164.85717,78.3482584 164.963282,81.2150426 164.85717,81.5708406 C164.751057,81.9272387 164.883996,85.2302205 164.937052,85.7912174 C164.990108,86.3522143 165.096221,89.1829988 165.122451,89.503397 C165.149277,89.8237952 164.804113,90.1711933 164.140612,90.224593 L164.140674,90.3809918 C164.141757,90.5278914 164.146275,90.7300152 164.162669,90.7633901 C164.189495,90.8167898 164.489949,90.8347897 164.701578,91.2535874 C164.784441,91.4173865 164.882207,91.9219837 164.881015,92.2483819 C164.879227,92.5753801 165.303677,93.5965745 165.376406,93.7795735 C165.4545,93.9775724 165.741839,94.1863712 165.706666,94.3735702 C165.664937,94.594969 165.529613,94.8277677 165.087279,94.8661675 C164.42795,94.9237672 163.21779,94.8841674 163.152811,94.8661675 C163.088428,94.8481676 162.693188,94.7239683 162.581114,94.2547709 C162.581114,94.2547709 162.587075,93.8989728 162.775455,93.6613741 C162.775455,93.6613741 162.810627,93.5839745 162.787378,93.4657752 C162.763532,93.3463759 162.581114,93.2929761 162.581114,93.0913773 C162.581114,92.8897784 162.557269,92.4739806 162.640132,92.4205809 C162.722399,92.3671812 162.616286,91.4443863 162.587075,91.2547874 C162.557269,91.0645884 162.687227,90.9133892 162.716437,90.8773894 C162.746244,90.8419896 162.761148,90.588791 162.763532,90.4975915 C162.766513,90.3907921 162.793935,90.037994 162.758763,89.9485945 C162.722995,89.859795 162.539981,89.9173947 162.345043,89.5615967 L162.345024,89.5054382 C162.344773,89.0301894 162.341254,85.6892608 162.291987,85.2920202 C162.238931,84.8654225 161.867537,80.2712478 161.867537,80.2712478 C161.901302,79.501716 161.413686,76.9439214 161.374622,76.7405291 L161.372146,76.7276673 L161.195093,78.1166596 C161.195093,78.1166596 160.963791,79.5764516 161.04427,80.3420474 C161.124749,81.1118432 160.877351,81.7532396 160.947099,82.1942372 C161.018636,82.6394347 160.858871,83.9570275 160.841583,84.5444243 C160.823699,85.131821 160.876755,89.2453984 160.894639,89.5123969 C160.911927,89.7793955 160.628762,89.8507951 160.487477,89.9575945 C160.487477,89.9575945 160.487477,90.5365913 160.593589,90.6343908 C160.699702,90.7321902 160.840391,90.7171903 161.04427,91.0261886 L161.044708,91.0968973 C161.046314,91.3656888 161.051424,92.3144672 161.04427,92.4265809 C161.035924,92.5573802 161.165882,92.4739806 161.177805,92.7415792 C161.189131,93.0085777 161.153959,93.2635763 161.136075,93.316976 C161.118787,93.3703757 160.911927,93.5719746 160.310424,93.8923728 C160.310424,93.8923728 160.035008,94.5571692 159.443639,94.8097678 C158.936325,95.0263666 158.868962,95.0011667 158.550028,94.9969668 C158.248382,94.9921668 157.226601,94.9315671 156.789632,94.8007678 C156.789632,94.8007678 156.436122,94.5637692 156.789632,94.2427709 C156.789632,94.2427709 156.876668,94.2169711 156.941647,94.0921717 C157.006626,93.9673724 158.262689,92.049183 158.350918,91.9009838 C158.428639,91.7707845 158.45296,91.4756705 158.481388,91.4079459 L158.493991,91.3939866 L158.529759,91.3999866 C158.529759,91.3999866 158.62991,91.4173865 158.671044,91.3939866 C158.712177,91.3699867 158.73185,90.8881894 158.919037,90.8659895 C159.030515,90.8521896 159.148551,90.8419896 159.225452,90.8659895 C159.225452,90.8659895 159.178357,90.3847921 159.169415,90.3223925 C159.160473,90.2599928 158.606065,90.4681917 158.169692,89.8387951 C158.169692,89.8387951 158.249574,84.3218255 158.196518,83.49383 C158.143462,82.6658346 157.45373,74.9738769 157.373847,74.5196794 C157.373847,74.5196794 157.255812,74.5136794 157.140757,74.3240805 C157.025703,74.1338815 157.485325,67.8957158 157.661782,67.4151185 C157.661782,67.4151185 157.5509,66.5781231 157.462076,65.9193267 C157.373847,65.2605303 157.524074,64.0077372 157.603957,63.6045395 C157.674301,63.2463414 157.55865,63.0459425 157.533016,62.963743 C157.50619,62.8791434 157.533016,63.5685397 157.391731,63.8007384 C157.24985,64.0317371 156.684115,67.2189196 156.489178,67.7709165 C156.489178,67.7709165 156.412276,69.9909043 156.412276,70.3587023 C156.412276,70.7271003 156.230454,72.6248898 156.230454,72.7076894 C156.230454,72.7910889 156.0844,72.7544891 156.0844,72.7544891 C156.0844,72.7544891 156.07367,73.0862873 156.135668,73.1840868 C156.19707,73.2818862 156.374124,73.4870851 156.454006,73.8518831 C156.533292,74.2172811 156.507062,74.4926796 156.551177,74.5820791 C156.595291,74.6708786 156.736576,74.955877 156.789632,75.0806763 C156.843284,75.2048756 156.896341,75.5348738 156.834342,75.6236733 C156.772344,75.7124729 156.940455,75.6590731 156.993511,75.7124729 C157.046567,75.7664726 157.046567,75.8552721 156.993511,75.8906719 C156.940455,75.9266717 156.614367,75.9578715 156.499313,75.9308716 C156.384854,75.9044718 156.569657,76.055071 156.639405,76.1024707 C156.713326,76.1522704 156.784267,76.1930702 156.872495,76.2200701 C156.960723,76.2470699 157.091874,76.2878697 157.091874,76.3772692 C157.091874,76.4660687 157.094855,76.4696687 157.072797,76.4870686 C157.026895,76.5248684 157.099624,76.585468 157.037625,76.602868 C156.975627,76.6208679 156.860572,76.6832675 156.807516,76.6118679 C156.807516,76.6118679 156.843284,76.7366672 156.772344,76.7366672 C156.701403,76.7366672 156.646559,76.7186673 156.52435,76.6652676 C156.281126,76.5584682 155.834618,76.1666704 155.754736,76.0778708 C155.67545,75.9884713 155.3744,75.2852752 155.339228,75.143076 C155.304056,75.0002768 155.301075,74.1098817 155.295113,73.9766824 C155.286768,73.7978834 155.230731,72.9260882 155.151444,72.8726885 C155.071562,72.8192888 154.746666,72.8738885 154.747262,72.8438886 L154.747599,72.5506819 C154.74564,71.8727273 154.723119,70.3604023 154.560671,69.693906 C154.348446,68.8215108 154.755608,65.8479271 154.825953,65.5275289 C154.896893,65.2071306 155.233115,61.6455502 156.17084,60.8091548 C156.17084,60.8091548 157.710069,59.8827599 158.700851,59.7225608 C158.700851,59.7225608 159.496695,59.4021626 159.584924,59.1531639 C159.584924,59.1531639 159.620692,58.6665666 159.584924,58.1439695 C159.584924,58.1439695 159.537829,58.0137702 159.467484,57.6693721 C159.467484,57.6693721 159.472254,57.6327723 159.37091,57.695172 C159.26897,57.7575716 159.131859,57.5661727 159.131859,57.5193729 C159.131859,57.4725732 158.966132,57.324974 158.966132,57.0993752 C158.966132,56.8737765 158.871346,56.5413783 158.942287,56.5233784 C159.013227,56.5059785 158.966132,56.4465788 158.989382,56.4759787 C159.013227,56.5059785 158.939306,56.4063791 158.921422,56.3487794 C158.904134,56.2905797 158.80756,55.0011868 158.843328,54.8589876 C158.932152,54.5013895 159.027534,54.3729902 159.091321,54.2763908 C159.109205,54.2487909 159.124705,54.1491915 159.176569,54.052592 C159.234991,53.9421926 159.347661,53.864193 159.369122,53.8227933 C159.48358,53.6007945 159.639768,53.5269949 159.81086,53.4261954 C159.981356,53.325396 159.94976,53.2359965 160.094622,53.1879968 C160.263925,53.1315971 160.505957,53.0025978 160.628762,53.0007978 C160.964984,52.9959978 161.182574,53.0121977 161.328628,53.0673974 Z M177.115261,54.9486271 C177.331659,55.2090256 178.091139,56.050821 177.896202,58.3020086 C177.896202,58.3020086 177.788897,58.783206 177.654766,59.1630039 C177.567133,59.4126025 177.436579,59.5926015 177.432406,59.6538012 C177.427637,59.7390007 177.602306,60.3347974 177.723322,60.4967966 C177.869972,60.6935955 178.028544,61.0187937 178.084581,61.0613934 C178.140618,61.1039932 178.808889,61.1927927 179.010384,61.2731923 C179.185052,61.3427919 180.335003,61.6469902 180.50371,62.7623841 C180.671821,63.877178 180.72607,64.3907751 180.810125,64.8983723 C180.89418,65.4065695 180.998505,65.7197678 181.005658,65.8211673 C181.008639,65.868567 180.779126,65.9309667 180.779126,65.9309667 C180.779126,65.9309667 180.888219,66.7523621 181.104617,67.4813581 L181.160916,67.659372 C181.317328,68.1343323 181.513568,68.6472184 181.499261,70.058944 C181.483165,71.6279353 181.450377,72.7475292 181.428916,73.4675252 C181.408052,74.1869212 181.466473,74.1287216 181.359168,75.0971162 C181.267959,75.9161117 181.241133,75.9389116 181.100444,76.3271095 C181.100444,76.3271095 180.981813,76.599508 180.943064,76.7081074 C180.844105,76.9865058 180.450654,77.4815031 180.31533,77.5397028 C180.235448,77.5733026 180.21816,77.504903 180.230083,77.4743032 C180.230083,77.4743032 180.054818,77.6033025 180.001762,77.5655027 C179.950494,77.5295029 179.962417,77.4737032 180.005338,77.4425033 C180.024415,77.4287034 180.050645,77.4185035 180.068529,77.3855036 C180.073894,77.3759037 180.049453,77.3819037 180.049453,77.3819037 C180.049453,77.3819037 180.02203,77.4059035 179.994012,77.4167035 C179.965397,77.4269034 179.912341,77.4347034 179.903995,77.4281034 C179.84617,77.3819037 179.87538,77.3333039 179.937379,77.2793042 C179.976128,77.2451044 180.036338,77.1983047 180.075683,77.143105 C180.128143,77.0693054 180.181199,77.0147057 180.19491,76.9709059 C180.19491,76.9709059 180.21816,76.9235062 180.154969,76.9745059 C180.086413,77.0291056 180.058395,77.0501055 180.007723,77.0453055 C179.963609,77.0417055 179.932013,77.0273056 179.942744,76.956506 C179.952878,76.8863064 179.983281,76.7573071 180.16868,76.6799075 C180.16868,76.6799075 180.272408,76.586308 180.293273,76.5509082 C180.36779,76.4267089 180.421443,76.3235095 180.431577,76.2815097 C180.442308,76.23891 180.507287,76.0985107 180.470326,76.057111 C180.440519,76.0235111 180.430385,76.1273106 180.371367,76.1771103 C180.308773,76.22931 180.241409,76.2611098 180.172257,76.23711 C180.100124,76.2119101 180.017857,76.1471105 180.073894,75.9191117 C180.13947,75.6557132 180.319503,75.1619159 180.345733,75.0371166 C180.37554,74.8979173 180.374944,74.7209183 180.476884,74.4725197 C180.540074,74.3195205 180.563324,74.2559209 180.606842,74.1479215 C180.67659,73.9751224 180.622341,73.7939234 180.566304,73.6241243 C180.510267,73.4549253 180.441115,73.0919273 180.240813,72.0593329 C180.039318,71.0189387 179.602349,69.0497495 179.51889,68.2583539 C179.51889,68.2583539 179.490275,67.7867564 179.462257,67.6313573 C179.434238,67.4759582 179.295934,66.6863625 179.167168,66.2693648 C179.167168,66.2693648 179.079536,66.2837647 179.078344,66.2555649 C179.074171,66.1811653 179.078344,65.8427671 179.056286,65.8427671 C179.038998,65.8427671 179.024095,66.1595654 178.996077,66.2693648 C178.985346,66.3113646 178.621106,67.5467578 178.789217,69.3677478 C178.957328,71.1881377 179.232743,70.8053398 179.716211,73.6313243 C179.716211,73.6313243 179.895649,74.4977195 179.834247,74.8571176 C179.834247,74.8571176 179.843785,74.8937174 179.766883,74.8973173 C179.689385,74.9009173 179.781191,77.7365017 178.838696,81.3724817 C178.838696,81.3724817 178.78862,82.0372781 178.722449,82.7242743 C178.663431,83.3398709 178.810081,83.5138699 178.880426,84.1162666 C178.977596,84.950862 179.077151,86.3428544 178.351055,89.5852365 C178.351055,89.5852365 178.351055,89.5918365 178.350459,89.6038364 C178.347478,89.7340357 178.324229,90.5002315 178.272961,90.6166309 C178.216924,90.7432302 178.105446,90.7426302 178.021391,90.7636301 C177.937335,90.7846299 178.021391,91.497426 178.021391,91.497426 C178.021391,91.497426 178.249115,91.324627 178.449418,91.3672267 C178.649124,91.4092265 178.659258,91.684025 178.659258,91.7800245 C178.659258,91.8748239 178.74391,91.7374247 178.807101,91.7800245 C178.869695,91.8220242 178.996077,92.2138221 179.206513,92.3722212 C179.41695,92.5312203 179.827093,93.145017 180.237236,93.4204154 C180.647379,93.6952139 180.878681,94.1614114 180.952602,94.4788096 L180.944048,94.4905734 C180.906955,94.5352216 180.732712,94.6921513 180.110855,94.7014084 C179.385355,94.7116083 179.311434,94.9024073 178.754044,94.7014084 C178.196655,94.4998095 177.628536,94.0342121 177.523615,94.0024122 C177.418695,93.9706124 176.650869,93.6952139 176.524488,93.6004145 C176.398106,93.505015 176.356377,93.4522153 176.429702,92.7640191 C176.429702,92.7640191 176.440432,92.7454192 176.479777,92.7406192 C176.519719,92.7346192 176.514353,91.8856239 176.545949,91.5148259 C176.545949,91.5148259 176.550718,91.2580273 176.971591,91.2058276 C176.971591,91.2058276 177.001398,90.7228303 177.015706,90.6382307 C177.015706,90.6382307 176.931054,90.601031 176.931054,90.5452313 C176.931054,90.4468318 176.80348,88.5184424 176.686041,87.8452461 C176.444009,86.4586537 176.605563,85.2766602 176.640139,84.3910651 C176.675311,83.50187 176.492892,83.6398692 176.419567,82.8142738 C176.345646,81.9880783 176.297359,80.5546862 176.298551,80.3266875 C176.30034,80.0146892 175.938484,77.2175046 175.855025,76.7135073 C175.791238,76.3277095 175.680356,76.2497099 175.613589,76.2497099 C175.442497,76.2497099 175.351884,77.2541044 175.199273,78.2992986 C175.047853,79.3384929 174.964394,79.87489 174.978701,80.4958865 C174.993009,81.1168831 174.978701,82.1380775 174.85232,82.6606746 C174.725939,83.1826718 174.564982,83.9464676 174.550674,84.4684647 C174.536963,84.9910618 174.680036,86.3128545 174.550674,87.4750481 C174.417139,88.6804415 174.256182,90.1636334 174.279431,90.6394307 C174.279431,90.6394307 174.276451,90.6922305 174.166165,90.7504301 C174.166165,90.7504301 174.15305,91.133828 174.17928,91.2400274 C174.203324,91.3368269 174.439759,91.3005271 174.53961,91.6769275 L174.563193,91.7902244 L174.500003,92.7214193 C174.500003,92.7214193 174.563193,92.7958189 174.573327,92.8330187 C174.584058,92.8696185 174.605519,93.3568158 174.568558,93.3994156 C174.531598,93.4414153 174.479138,93.5740146 174.368852,93.7060139 C174.368852,93.7060139 174.489272,93.9232127 174.505368,94.0660119 C174.521463,94.2088111 174.573327,94.3888101 174.17928,94.769808 C174.171566,94.8022105 174.047557,94.9115688 172.475517,94.7932079 C172.475517,94.7932079 172.033779,94.7860079 171.90084,94.4404098 C171.90084,94.4404098 171.886533,94.2142111 172.111277,94.037812 C172.111277,94.037812 172.265081,93.7558136 172.35629,93.4378153 C172.447499,93.1204171 172.685954,92.7886189 172.665089,92.041023 C172.665089,92.041023 172.601899,91.7938244 173.071655,91.4482263 C173.071655,91.4482263 173.109212,90.8020298 173.106828,90.7438302 C173.103847,90.6718306 173.020984,90.7264303 172.87493,90.5554312 C172.87493,90.5554312 172.837373,89.6608361 172.643628,88.8580405 C172.470748,88.1392445 171.897263,85.8310572 172.384308,83.7700685 C172.384308,83.7700685 172.481479,83.3524708 172.507113,83.0836723 C172.547054,82.6726746 172.493998,82.233477 172.491017,82.0942777 C172.477306,81.4240814 171.466255,77.3099041 171.599194,74.9843169 C171.599194,74.9843169 171.462679,74.9843169 171.416776,74.9069173 C171.378027,74.8415176 171.879379,72.5501302 172.433788,70.6937405 C172.985215,68.8445506 172.643628,67.4123585 172.643628,66.8477616 C172.643628,66.2831647 172.293099,65.5637687 172.293099,65.507369 C172.293099,65.4509693 172.236466,66.0695659 172.196525,66.1913652 C172.196525,66.1913652 172.150026,66.1991652 172.070739,66.1829653 C172.020664,66.1727653 171.592041,67.7777565 171.510966,68.768951 C171.496658,68.9483501 171.47639,69.2663483 171.398892,69.9515445 C171.313048,70.7117404 171.276683,71.0537385 171.140168,72.2567319 C171.140168,72.2567319 170.947615,74.0285221 170.919001,74.5115195 C170.919001,74.5115195 171.087112,74.7941179 171.192628,75.0761164 C171.297548,75.3581148 171.407834,75.7307128 171.45016,75.8999118 C171.491889,76.0691109 171.599194,76.2899097 171.493678,76.3955091 C171.388757,76.5017085 171.199185,76.3043096 171.171167,76.23351 C171.143745,76.1627104 171.031075,75.9653115 170.989345,75.7187128 C170.989345,75.7187128 170.932116,75.694113 170.92675,75.7325127 C170.919001,75.7913124 170.95775,76.049911 170.971461,76.1915102 C170.985768,76.3319094 171.077573,76.5815081 171.168782,76.7009074 C171.259992,76.8209068 171.420353,76.8893064 171.472217,76.954706 C171.518119,77.0117057 171.515139,77.143105 171.437641,77.1257051 C171.437641,77.1257051 171.599194,77.2835042 171.639732,77.3363039 C171.679673,77.3885036 171.711268,77.5193029 171.587868,77.5409028 C171.540177,77.5487028 171.491889,77.5133029 171.46089,77.494703 C171.450756,77.4893031 171.431083,77.497103 171.437641,77.5289029 C171.449564,77.5889025 171.49487,77.6999019 171.46089,77.7173018 C171.407834,77.7437017 171.331528,77.7653016 171.250453,77.6693021 C171.250453,77.6693021 170.653719,76.965506 170.650738,76.957706 C170.647758,76.949906 170.303786,76.23531 170.272191,76.1243106 C170.240595,76.0133112 170.10706,74.8223177 170.093349,74.7233183 C170.079042,74.6243188 170.032543,73.8581231 170.032543,73.8581231 C170.032543,73.8581231 169.946699,73.2305265 169.927027,73.0163277 C169.868605,72.3671313 169.816741,71.7017349 169.767262,70.9745389 C169.720167,70.2815427 169.641476,69.2585484 169.690956,68.9237502 C169.752954,68.5055525 169.965179,67.6385573 170.007505,67.4831581 C170.049831,67.327759 170.290671,65.9699664 170.399168,65.7305678 C170.399168,65.7305678 170.220327,65.6771681 170.206019,65.6345683 C170.192308,65.5925685 170.387245,64.9853719 170.415264,64.7597731 C170.443282,64.5335743 170.554164,63.5453798 170.638219,63.0797823 C170.722275,62.6141849 171.106784,61.9415886 171.564022,61.5977905 C172.045702,61.2359925 173.259439,60.9089943 173.292823,60.8747945 C173.385224,60.781195 173.596853,60.1823983 173.663621,59.9357996 C173.713696,59.7510007 173.649909,59.5896015 173.61116,59.4384024 C173.570623,59.2776033 173.29938,57.9696105 173.456761,56.9964158 C173.605795,56.0778209 174.191203,54.9198272 175.04845,54.6486287 C175.122371,54.6252288 175.407921,54.590429 175.753681,54.7296283 L175.785549,54.7172085 C175.838211,54.6977917 175.955005,54.6589144 176.12746,54.6246289 C176.396318,54.5706291 176.846998,54.6258288 177.115261,54.9486271 Z M70.7026667,56.0213699 C70.7026667,56.0213699 71.3315,55.9434287 71.82675,56.0852467 C72.3214167,56.2270647 73.029,56.0887628 73.4740833,56.3126243 C73.91975,56.5364857 74.8740833,57.0685963 75.1395,57.1863873 C75.4043333,57.3035922 75.9631667,57.5415183 76.557,58.3508185 C76.557,58.3508185 77.1508333,58.8841011 77.5469167,59.0686989 C77.5469167,59.0686989 79.3021667,60.2811842 79.875,62.7747197 C79.875,62.7747197 80.3200833,65.1721472 79.35,69.1037876 C79.35,69.1037876 79.4614167,69.279595 79.525,69.5515105 C79.5885833,69.82284 79.4369167,71.5768122 79.4415833,71.7239045 C79.44975,71.9688628 78.9043333,73.3044133 78.66575,73.7368996 C78.66575,73.7368996 78.31575,74.1353965 77.6315,73.7368996 C77.6315,73.7368996 77.4646667,73.9437664 77.397,74.1090254 C77.3468333,74.2315046 76.9775833,75.2295048 76.9548333,75.6766417 C76.9390833,75.9796166 76.746,78.7134222 76.9548333,80.5933898 C76.9571667,80.6156588 80.3673333,82.5501266 81.0620833,82.8700962 C81.821,83.219953 89.6744167,86.4559819 90.9519167,87.8630275 C91.7586667,88.7520271 92.7439167,91.6710166 93,93.5 L93,93.5 L51,93.5 C51.007,93.4783171 51.0163333,93.4601503 51.0198333,93.4367093 C51.4135833,90.7398232 52.47525,88.3822454 52.9203333,87.8630275 C54.5571667,85.9555167 63.2914167,82.7587514 63.4495,82.6685036 C63.5865833,82.5899763 66.8363333,80.7551327 66.8841667,80.5072442 C67.00025,79.8995364 66.9010833,76.0218103 66.8596667,75.7850563 C66.7820833,75.3402635 66.41575,74.5708129 66.2728333,74.2959673 C66.1240833,74.0117453 66.0925833,74.0316701 66.0745,74.0603853 C66.057,74.0885145 65.6819167,74.26608 65.55475,74.2449832 C65.4275833,74.2233002 65.3004167,74.2197841 65.2228333,74.1523912 C65.14525,74.0849984 64.4166667,72.6304848 64.3373333,72.3908007 C64.2574167,72.1511165 64.1728333,70.7815766 64.1938333,70.5899465 C64.2148333,70.3983164 64.0561667,70.0677984 64.14075,69.7167695 C64.14075,69.7167695 64.1938333,69.6200754 64.2259167,69.5726074 C64.2574167,69.5245534 63.7271667,67.2337824 63.75925,66.3277881 C63.79075,65.4223798 63.2348333,62.9071613 64.7509167,60.9340158 C64.7509167,60.9340158 65,59.9354296 65.7635833,59.2532967 C65.7635833,59.2532967 65.7945,58.6127716 67.1105,58.0706987 C67.1105,58.0706987 67.6355,57.7454549 67.8688333,57.4366198 C68.1021667,57.1277848 68.3938333,56.7386643 69.03025,56.6747876 C69.03025,56.6747876 69.8539167,56.2557799 70.7026667,56.0213699 Z" id="形状结合" fill="url(#linearGradient-3)" fill-rule="nonzero"></path>
    </g>
</svg>