<?xml version="1.0" encoding="utf-8"?>
<!-- Generator: Adobe Illustrator 23.0.1, SVG Export Plug-In . SVG Version: 6.00 Build 0)  -->
<svg version="1.1" id="图层_1" xmlns="http://www.w3.org/2000/svg" xmlns:xlink="http://www.w3.org/1999/xlink" x="0px" y="0px"
	 viewBox="0 0 334 4" style="enable-background:new 0 0 334 4;" xml:space="preserve">
<style type="text/css">
	.st0{fill:url(#SVGID_1_);}
	.st1{fill-rule:evenodd;clip-rule:evenodd;fill:#D2D6DE;}
</style>
<g id="编组-11_1_" transform="translate(-1.000000, 0.000000)">
	
		<linearGradient id="SVGID_1_" gradientUnits="userSpaceOnUse" x1="131.6054" y1="6" x2="132.5994" y2="6" gradientTransform="matrix(331.9983 0 0 -1 -43691.7695 8.0318)">
		<stop  offset="0" style="stop-color:#D2D6DE;stop-opacity:0.2967"/>
		<stop  offset="1" style="stop-color:#D2D6DE"/>
	</linearGradient>
	<path class="st0" d="M331,2.5h-2v-1h2V2.5z M327,2.5h-2v-1h2V2.5z M323,2.5h-2v-1h2V2.5z M319,2.5h-2v-1h2V2.5z M315,2.5h-2v-1h2
		V2.5z M311,2.5h-2v-1h2V2.5z M307,2.5h-2v-1h2V2.5z M303,2.5h-2v-1h2V2.5z M299,2.5h-2v-1h2V2.5z M295,2.5h-2v-1h2V2.5z M291,2.5
		h-2v-1h2V2.5z M287,2.5h-2v-1h2V2.5z M283,2.5h-2v-1h2V2.5z M279,2.5h-2v-1h2V2.5z M275,2.5h-2v-1h2V2.5z M271,2.5h-2v-1h2V2.5z
		 M267,2.5h-2v-1h2V2.5z M263,2.5h-2v-1h2V2.5z M259,2.5h-2v-1h2V2.5z M255,2.5h-2v-1h2V2.5z M251,2.5h-2v-1h2V2.5z M247,2.5h-2v-1
		h2V2.5z M243,2.5h-2v-1h2V2.5z M239,2.5h-2v-1h2V2.5z M235,2.5h-2v-1h2V2.5z M231,2.5h-2v-1h2V2.5z M227,2.5h-2v-1h2V2.5z M223,2.5
		h-2v-1h2V2.5z M219,2.5h-2v-1h2V2.5z M215,2.5h-2v-1h2V2.5z M211,2.5h-2v-1h2V2.5z M207,2.5h-2v-1h2V2.5z M203,2.5h-2v-1h2V2.5z
		 M199,2.5h-2v-1h2V2.5z M195,2.5h-2v-1h2V2.5z M191,2.5h-2v-1h2V2.5z M187,2.5h-2v-1h2V2.5z M183,2.5h-2v-1h2V2.5z M179,2.5h-2v-1
		h2V2.5z M175,2.5h-2v-1h2V2.5z M171,2.5h-2v-1h2V2.5z M167,2.5h-2v-1h2V2.5z M163,2.5h-2v-1h2V2.5z M159,2.5h-2v-1h2V2.5z M155,2.5
		h-2v-1h2V2.5z M151,2.5h-2v-1h2V2.5z M147,2.5h-2v-1h2V2.5z M143,2.5h-2v-1h2V2.5z M139,2.5h-2v-1h2V2.5z M135,2.5h-2v-1h2V2.5z
		 M131,2.5h-2v-1h2V2.5z M127,2.5h-2v-1h2V2.5z M123,2.5h-2v-1h2V2.5z M119,2.5h-2v-1h2V2.5z M115,2.5h-2v-1h2V2.5z M111,2.5h-2v-1
		h2V2.5z M107,2.5h-2v-1h2V2.5z M103,2.5h-2v-1h2V2.5z M99,2.5h-2v-1h2V2.5z M95,2.5h-2v-1h2V2.5z M91,2.5h-2v-1h2V2.5z M87,2.5h-2
		v-1h2V2.5z M83,2.5h-2v-1h2V2.5z M79,2.5h-2v-1h2V2.5z M75,2.5h-2v-1h2V2.5z M71,2.5h-2v-1h2V2.5z M67,2.5h-2v-1h2V2.5z M63,2.5h-2
		v-1h2V2.5z M59,2.5h-2v-1h2V2.5z M55,2.5h-2v-1h2V2.5z M51,2.5h-2v-1h2V2.5z M47,2.5h-2v-1h2V2.5z M43,2.5h-2v-1h2V2.5z M39,2.5h-2
		v-1h2V2.5z M35,2.5h-2v-1h2V2.5z M31,2.5h-2v-1h2V2.5z M27,2.5h-2v-1h2V2.5z M23,2.5h-2v-1h2V2.5z M19,2.5h-2v-1h2V2.5z M15,2.5h-2
		v-1h2V2.5z M11,2.5H9v-1h2V2.5z M7,2.5H5v-1h2V2.5z M3,2.5H1v-1h2V2.5z"/>
	<path id="椭圆形复制-3_1_" class="st1" d="M333,4c1.1,0,2-0.9,2-2s-0.9-2-2-2s-2,0.9-2,2S331.9,4,333,4z"/>
</g>
</svg>
