<?xml version="1.0" encoding="utf-8"?>
<!-- Generator: Adobe Illustrator 23.0.1, SVG Export Plug-In . SVG Version: 6.00 Build 0)  -->
<svg version="1.1" id="图层_1" xmlns="http://www.w3.org/2000/svg" xmlns:xlink="http://www.w3.org/1999/xlink" x="0px" y="0px"
	 viewBox="0 0 334 4" style="enable-background:new 0 0 334 4;" xml:space="preserve">
<style type="text/css">
	.st0{fill:url(#SVGID_1_);}
	.st1{fill-rule:evenodd;clip-rule:evenodd;fill:#D2D6DE;}
</style>
<g id="编组-11_1_" transform="translate(-1.000000, 0.000000)">
	
		<linearGradient id="SVGID_1_" gradientUnits="userSpaceOnUse" x1="131.6054" y1="6.0001" x2="132.5994" y2="6.0001" gradientTransform="matrix(-331.9983 0 0 -1 44027.7695 8.0319)">
		<stop  offset="0" style="stop-color:#D2D6DE;stop-opacity:0.2967"/>
		<stop  offset="1" style="stop-color:#D2D6DE"/>
	</linearGradient>
	<path class="st0" d="M5,1.5h2v1H5V1.5z M9,1.5h2v1H9V1.5z M13,1.5h2v1h-2V1.5z M17,1.5h2v1h-2V1.5z M21,1.5h2v1h-2V1.5z M25,1.5h2
		v1h-2V1.5z M29,1.5h2v1h-2V1.5z M33,1.5h2v1h-2V1.5z M37,1.5h2v1h-2V1.5z M41,1.5h2v1h-2V1.5z M45,1.5h2v1h-2V1.5z M49,1.5h2v1h-2
		V1.5z M53,1.5h2v1h-2V1.5z M57,1.5h2v1h-2V1.5z M61,1.5h2v1h-2V1.5z M65,1.5h2v1h-2V1.5z M69,1.5h2v1h-2V1.5z M73,1.5h2v1h-2V1.5z
		 M77,1.5h2v1h-2V1.5z M81,1.5h2v1h-2V1.5z M85,1.5h2v1h-2V1.5z M89,1.5h2v1h-2V1.5z M93,1.5h2v1h-2V1.5z M97,1.5h2v1h-2V1.5z
		 M101,1.5h2v1h-2V1.5z M105,1.5h2v1h-2V1.5z M109,1.5h2v1h-2V1.5z M113,1.5h2v1h-2V1.5z M117,1.5h2v1h-2V1.5z M121,1.5h2v1h-2V1.5z
		 M125,1.5h2v1h-2V1.5z M129,1.5h2v1h-2V1.5z M133,1.5h2v1h-2V1.5z M137,1.5h2v1h-2V1.5z M141,1.5h2v1h-2V1.5z M145,1.5h2v1h-2V1.5z
		 M149,1.5h2v1h-2V1.5z M153,1.5h2v1h-2V1.5z M157,1.5h2v1h-2V1.5z M161,1.5h2v1h-2V1.5z M165,1.5h2v1h-2V1.5z M169,1.5h2v1h-2V1.5z
		 M173,1.5h2v1h-2V1.5z M177,1.5h2v1h-2V1.5z M181,1.5h2v1h-2V1.5z M185,1.5h2v1h-2V1.5z M189,1.5h2v1h-2V1.5z M193,1.5h2v1h-2V1.5z
		 M197,1.5h2v1h-2V1.5z M201,1.5h2v1h-2V1.5z M205,1.5h2v1h-2V1.5z M209,1.5h2v1h-2V1.5z M213,1.5h2v1h-2V1.5z M217,1.5h2v1h-2V1.5z
		 M221,1.5h2v1h-2V1.5z M225,1.5h2v1h-2V1.5z M229,1.5h2v1h-2V1.5z M233,1.5h2v1h-2V1.5z M237,1.5h2v1h-2V1.5z M241,1.5h2v1h-2V1.5z
		 M245,1.5h2v1h-2V1.5z M249,1.5h2v1h-2V1.5z M253,1.5h2v1h-2V1.5z M257,1.5h2v1h-2V1.5z M261,1.5h2v1h-2V1.5z M265,1.5h2v1h-2V1.5z
		 M269,1.5h2v1h-2V1.5z M273,1.5h2v1h-2V1.5z M277,1.5h2v1h-2V1.5z M281,1.5h2v1h-2V1.5z M285,1.5h2v1h-2V1.5z M289,1.5h2v1h-2V1.5z
		 M293,1.5h2v1h-2V1.5z M297,1.5h2v1h-2V1.5z M301,1.5h2v1h-2V1.5z M305,1.5h2v1h-2V1.5z M309,1.5h2v1h-2V1.5z M313,1.5h2v1h-2V1.5z
		 M317,1.5h2v1h-2V1.5z M321,1.5h2v1h-2V1.5z M325,1.5h2v1h-2V1.5z M329,1.5h2v1h-2V1.5z M333,1.5h2v1h-2V1.5z"/>
	<path id="椭圆形复制-3_1_" class="st1" d="M5,2c0-1.1-0.9-2-2-2C1.9,0,1,0.9,1,2s0.9,2,2,2S5,3.1,5,2z"/>
</g>
</svg>
