<?xml version="1.0" encoding="utf-8"?>
<!-- Generator: Adobe Illustrator 22.1.0, SVG Export Plug-In . SVG Version: 6.00 Build 0)  -->
<svg version="1.1" id="图层_1" xmlns="http://www.w3.org/2000/svg" xmlns:xlink="http://www.w3.org/1999/xlink" x="0px" y="0px"
	 viewBox="0 0 120 80" style="enable-background:new 0 0 120 80;" xml:space="preserve">
<style type="text/css">
	.st0{fill:#FFFFFF;}
	.st1{fill:#C4D5ED;}
	.st2{fill:#A6BAD7;}
	.st3{fill:#899FBF;}
	.st4{fill:#C0D0E6;}
	.st5{opacity:0.9;fill:url(#fu_1_);enable-background:new    ;}
</style>
<rect class="st0" width="120" height="80"/>
<g id="icon">
	<polygon id="Fill-1" class="st1" points="35,53.8 63.5,66.6 88.9,53.9 59,43.8 	"/>
	<polygon id="Fill-2" class="st2" points="57.1,59.8 43.2,53.8 43.2,19.8 57.1,23.5 	"/>
	<polygon id="Fill-3" class="st3" points="57.1,59.8 70.4,53.8 70.4,20.4 57.1,23.5 	"/>
	<polygon id="Fill-4" class="st1" points="56.2,17 43.2,19.8 57.1,23.5 70.4,20.4 	"/>
	<path id="Fill-5" class="st0" d="M57.1,43.6l-13.9-4.9V40l13.9,4.9L57.1,43.6z M57.1,50.8l-13.9-5.1V47l13.9,5.1L57.1,50.8z
		 M57.1,36.5l-13.9-4.7V33l13.9,4.7L57.1,36.5z M43.2,26.2l13.9,4.3v-1.3l-13.9-4.3V26.2z"/>
	<path id="Fill-6" class="st4" d="M57.1,29.2v1.3l13.3-3.9v-1.3L57.1,29.2z M57.1,36.5v1.3l13.3-4.5V32L57.1,36.5z M57.1,43.6v1.3
		L70.4,40v-1.3L57.1,43.6z M70.4,45.4l-13.3,5.4v1.3l13.3-5.4V45.4z"/>
	<polygon id="Fill-7" class="st2" points="71.9,60.3 63.4,57 63.4,38.1 71.9,38.5 	"/>
	<polygon id="Fill-8" class="st3" points="71.9,60.3 79.2,56.8 79.2,37.8 71.9,40.1 	"/>
	<polygon id="Fill-9" class="st1" points="63.4,38.1 71.9,40.6 79.2,37.8 70.4,35.7 	"/>
	<path id="Fill-10" class="st0" d="M69.1,49.7l-3.6-1.2v1.3l3.6,1.2V49.7z M69.1,53.2l-3.6-1.3v1.3l3.6,1.3V53.2z M65.5,42.8
		l3.6,1.1v-1.3l-3.6-1.1V42.8z M69.1,47.5l-3.6-1.1v-1.3l3.6,1.1V47.5z"/>
</g>
<linearGradient id="fu_1_" gradientUnits="userSpaceOnUse" x1="55.0417" y1="32.56" x2="55.0417" y2="33.56" gradientTransform="matrix(120 0 0 80 -6545 -2605)">
	<stop  offset="0" style="stop-color:#D1E4FF"/>
	<stop  offset="1" style="stop-color:#ECF7FA"/>
</linearGradient>
<rect id="fu" class="st5" width="120" height="80"/>
</svg>
