<?xml version="1.0" encoding="utf-8"?>
<!-- Generator: Adobe Illustrator 22.1.0, SVG Export Plug-In . SVG Version: 6.00 Build 0)  -->
<svg version="1.1" id="图层_1" xmlns="http://www.w3.org/2000/svg" xmlns:xlink="http://www.w3.org/1999/xlink" x="0px" y="0px"
	 viewBox="0 0 24 23" style="enable-background:new 0 0 24 23;" xml:space="preserve">
<style type="text/css">
	.st0{fill:#E3E3E3;}
	.st1{fill:#CDCDCD;}
	.st2{fill:#B9B9B9;}
	.st3{fill:#FFFFFF;}
	.st4{fill:#DEDEDE;}
</style>
<polygon id="Fill-1" class="st0" points="0,16.3 12.7,22 24,16.4 10.7,11.9 "/>
<polygon id="Fill-2" class="st1" points="9.8,19 3.6,16.4 3.6,1.2 9.8,2.9 "/>
<polygon id="Fill-3" class="st2" points="9.8,19 15.8,16.3 15.8,1.5 9.8,2.9 "/>
<polygon id="Fill-4" class="st0" points="9.4,0 3.6,1.2 9.8,2.9 15.8,1.5 "/>
<path id="Fill-5" class="st3" d="M9.8,11.8L3.6,9.7v0.6l6.2,2.2V11.8z M9.8,15l-6.2-2.3v0.6l6.2,2.3V15z M9.8,8.6L3.6,6.6v0.6
	l6.2,2.1V8.6z M3.6,4.1L9.8,6V5.4L3.6,3.5V4.1z"/>
<path id="Fill-6" class="st4" d="M9.8,5.4V6l5.9-1.7V3.7L9.8,5.4z M9.8,8.6v0.6l5.9-2V6.7L9.8,8.6z M9.8,11.8v0.6l5.9-2.2V9.6
	L9.8,11.8z M15.8,12.6L9.8,15v0.6l5.9-2.4V12.6z"/>
<polygon id="Fill-7" class="st1" points="16.4,19.2 12.6,17.8 12.6,9.4 16.4,9.6 "/>
<polygon id="Fill-8" class="st2" points="16.4,19.2 19.6,17.7 19.6,9.2 16.4,10.3 "/>
<polygon id="Fill-9" class="st0" points="12.6,9.4 16.4,10.5 19.6,9.2 15.7,8.3 "/>
<path id="Fill-10" class="st3" d="M15.2,14.5L13.6,14v0.6l1.6,0.5V14.5z M15.2,16.1l-1.6-0.6v0.6l1.6,0.6V16.1z M13.6,11.5l1.6,0.5
	v-0.6l-1.6-0.5V11.5z M15.2,13.5l-1.6-0.5v-0.6l1.6,0.5V13.5z"/>
</svg>
