<?xml version="1.0" encoding="utf-8"?>
<!-- Generator: Adobe Illustrator 22.1.0, SVG Export Plug-In . SVG Version: 6.00 Build 0)  -->
<svg version="1.1" id="图层_1" xmlns="http://www.w3.org/2000/svg" xmlns:xlink="http://www.w3.org/1999/xlink" x="0px" y="0px"
	 viewBox="0 0 28 26" style="enable-background:new 0 0 28 26;" xml:space="preserve">
<style type="text/css">
	.st0{fill:#759CD5;}
	.st1{fill:#668DC6;}
	.st2{fill:#4E71A4;}
	.st3{fill:#FFFFFF;}
	.st4{fill:#7A9FD5;}
</style>
<polygon id="Fill-1" class="st0" points="0,19.1 14.8,25.7 28,19.1 12.4,13.9 "/>
<polygon id="Fill-2" class="st1" points="11.5,22.2 4.2,19.1 4.2,1.5 11.5,3.3 "/>
<polygon id="Fill-3" class="st2" points="11.5,22.2 18.4,19.1 18.4,1.8 11.5,3.3 "/>
<polygon id="Fill-4" class="st0" points="11,0 4.2,1.5 11.5,3.3 18.4,1.8 "/>
<path id="Fill-5" class="st3" d="M11.5,13.8l-7.2-2.5v0.7l7.2,2.5L11.5,13.8z M11.5,17.5l-7.2-2.7v0.7l7.2,2.7L11.5,17.5z
	 M11.5,10.1L4.2,7.7v0.7l7.2,2.4L11.5,10.1z M4.2,4.8L11.5,7V6.3L4.2,4.1V4.8z"/>
<path id="Fill-6" class="st4" d="M11.5,6.3V7l6.9-2V4.3L11.5,6.3z M11.5,10.1v0.7l6.9-2.3V7.8L11.5,10.1z M11.5,13.8v0.7l6.9-2.6
	v-0.7L11.5,13.8z M18.4,14.8l-6.9,2.8v0.7l6.9-2.8V14.8z"/>
<polygon id="Fill-7" class="st1" points="19.1,22.5 14.7,20.7 14.7,10.9 19.1,11.1 "/>
<polygon id="Fill-8" class="st2" points="19.1,22.5 22.9,20.6 22.9,10.8 19.1,12 "/>
<polygon id="Fill-9" class="st0" points="14.7,10.9 19.1,12.2 22.9,10.8 18.4,9.7 "/>
<path id="Fill-10" class="st3" d="M17.7,17l-1.9-0.6V17l1.9,0.6V17z M17.7,18.8l-1.9-0.7v0.7l1.9,0.7V18.8z M15.8,13.4l1.9,0.6v-0.7
	l-1.9-0.6V13.4z M17.7,15.8l-1.9-0.6v-0.7l1.9,0.6V15.8z"/>
</svg>
