<?xml version="1.0" encoding="utf-8"?>
<!-- Generator: Adobe Illustrator 22.1.0, SVG Export Plug-In . SVG Version: 6.00 Build 0)  -->
<svg version="1.1" id="图层_1" xmlns="http://www.w3.org/2000/svg" xmlns:xlink="http://www.w3.org/1999/xlink" x="0px" y="0px"
	 viewBox="0 0 72 72" style="enable-background:new 0 0 72 72;" xml:space="preserve">
<style type="text/css">
	.st0{fill:#B0D0FF;}
	.st1{fill:#21539B;}
</style>
<g id="属性检索2">
	<path id="形状结合" class="st0" d="M50.7,20.4l3,0.8c0.5,0.1,0.8,0.7,0.6,1.2l-3.6,13.5V20.4z M27.1,14l16.9,4.5h-19l1-3.8
		C26,14.2,26.6,13.9,27.1,14z"/>
	<path id="矩形" class="st1" d="M18,20.4h29.7c0.6,0,1,0.5,1,1.1v34.4c0,0.6-0.5,1.1-1,1.1H18c-0.6,0-1-0.5-1-1.1V21.5
		C17,20.9,17.5,20.4,18,20.4z"/>
	<polygon id="矩形_1_" class="st0" points="21.8,26.8 29.9,26.8 29.9,30.3 21.8,30.3 	"/>
	<polygon id="矩形复制-2" class="st0" points="21.8,36.6 34.2,36.6 34.2,40.1 21.8,40.1 	"/>
	<polygon id="矩形复制-3" class="st0" points="21.8,47.3 27.1,47.3 27.1,50.8 21.8,50.8 	"/>
	<path id="形状结合_1_" class="st0" d="M32,44.6l0,2.9l9,0V51l-9,0l0,2.5h-3v-8.8H32z M39.5,34.1l0,2.9l4.4,0v3.5l-4.4,0l0,2.5
		h-3v-8.8H39.5z M34.9,23.9l0,2.9l9,0v3.5l-9,0l0,2.5h-3v-8.8H34.9z"/>
</g>
</svg>
