<?xml version="1.0" encoding="utf-8"?>
<!-- Generator: Adobe Illustrator 22.1.0, SVG Export Plug-In . SVG Version: 6.00 Build 0)  -->
<svg version="1.1" id="图层_1" xmlns="http://www.w3.org/2000/svg" xmlns:xlink="http://www.w3.org/1999/xlink" x="0px" y="0px"
	 viewBox="0 0 72 72" style="enable-background:new 0 0 72 72;" xml:space="preserve">
<style type="text/css">
	.st0{fill:#AEB8C9;}
	.st1{fill:#C7CED8;}
	.st2{fill:#EBEFF2;}
</style>
<g id="属性检索3">
	<path id="形状结合" class="st0" d="M50.7,20.5l3,0.8c0.5,0.1,0.8,0.7,0.6,1.2l-3.6,13.6V20.5z M27.1,14l16.9,4.6h-19l1-3.8
		C26,14.2,26.6,13.9,27.1,14z"/>
	<path id="矩形" class="st1" d="M18,20.4h29.7c0.6,0,1,0.5,1,1.1v34.8c0,0.6-0.5,1.1-1,1.1H18c-0.6,0-1-0.5-1-1.1V21.6
		C17,21,17.5,20.4,18,20.4z"/>
	<path id="形状结合_1_" class="st2" d="M32,45.1l0,3l9,0v3.5l-9,0l0,2.5h-3v-9H32z M27.1,47.7v3.5h-5.3v-3.5H27.1z M39.5,34.4
		l0,3l4.4,0v3.5l-4.4,0l0,2.5h-3v-9H39.5z M34.2,36.9v3.5H21.8v-3.5H34.2z M34.9,24.1l0,3l9,0v3.5l-9,0l0,2.5h-3v-9H34.9z M29.9,27
		v3.5h-8.1V27H29.9z"/>
</g>
</svg>
