<?xml version="1.0" encoding="utf-8"?>
<!-- Generator: Adobe Illustrator 22.1.0, SVG Export Plug-In . SVG Version: 6.00 Build 0)  -->
<svg version="1.1" id="图层_1" xmlns="http://www.w3.org/2000/svg" xmlns:xlink="http://www.w3.org/1999/xlink" x="0px" y="0px"
	 viewBox="0 0 72 72" style="enable-background:new 0 0 72 72;" xml:space="preserve">
<style type="text/css">
	.st0{fill:#AEB8C9;}
	.st1{fill:#C7CED8;}
	.st2{fill:#EBEFF2;}
</style>
<g id="人体">
	<ellipse id="椭圆形" class="st0" cx="27" cy="60.5" rx="8" ry="1.5"/>
	<ellipse id="椭圆形备份" class="st0" cx="45.5" cy="60.5" rx="7.5" ry="1.5"/>
	<path id="Fill-1" class="st1" d="M33.4,20.4c-0.4-0.4-3-1.4-3.2-1.5c-0.2,0-0.5-0.2-0.7-0.4c-0.3-0.1-0.5-0.3-0.5-0.3
		c0-0.1,0-0.5,0-0.8c0-0.2-0.1-0.5,0-0.5c0.1-0.1,0-0.8,0.1-0.8c0.1,0.1,0.2,0.1,0.3,0c0.1,0,0.2-0.5,0.3-0.6c0-0.1,0-0.7,0-0.8
		s-0.1-0.1-0.1-0.1c0.2-0.2,0.2-1.7,0.2-1.7c-0.2-1.3-0.7-1.3-1-1.5s-0.2-0.3-0.6-0.5c-0.2-0.1-0.3-0.2-0.5-0.3s-0.4-0.1-0.8-0.1
		c-0.1,0-0.4,0.2-0.6,0.2C26,11,26,11.1,25.8,11.2c-0.2,0.1-0.4,0.2-0.5,0.5c0,0-0.2,0.1-0.2,0.3C25,12.1,25,12.2,25,12.3
		c-0.1,0.1-0.2,0.3-0.3,0.7c0,0.2,0.1,1.7,0.1,1.8s0.1,0.2,0.1,0.2s0,0-0.1,0.1c-0.1,0,0,0.4,0,0.7s0.2,0.4,0.2,0.5
		c0,0.1,0.2,0.3,0.3,0.2c0.1-0.1,0.1,0,0.1,0c0.1,0.4,0.1,0.6,0.1,0.6c0,0.6,0,1.2,0,1.2c-0.1,0.3-1.1,0.7-1.1,0.7
		c-1.2,0.2-3.1,1.3-3.1,1.3c-1.1,1-1.5,5.3-1.6,5.7c-0.1,0.4-0.6,4-0.3,5c0.2,1,0.2,3.4,0.2,3.8c0,0,0.4,0,0.5,0
		c0.1,0.1,0.2,1.1,0.2,1.3s0,1.2,0.1,1.4c0,0.2,0.4,1,0.5,1.1s0.6,0.6,0.9,0.7c0.1,0.1,0.2,0.1,0.3,0.1c0.1,0,0-0.2,0-0.2
		c0.1,0.1,0.2,0,0.3,0c0.1,0,0-0.1,0-0.1s0,0,0-0.1s-0.2-0.2-0.3-0.2c-0.1,0-0.2-0.1-0.3-0.1c-0.1-0.1-0.3-0.2-0.2-0.2
		c0.1,0,0.5,0,0.6,0s0.1-0.1,0-0.2c-0.1-0.1-0.3,0-0.2-0.1s0-0.5-0.1-0.7s-0.2-0.5-0.3-0.6c-0.1-0.1,0-0.4-0.1-0.9
		c-0.1-0.4-0.3-0.7-0.4-0.8S21,34.7,21,34.7s0.2,0,0.2-0.1s0.2-2.4,0.2-2.8c0-0.4,0.1-3.1,0.1-3.1c0.2-0.7,0.9-4.5,1.1-4.8
		c0.2-0.3,0.1-1.1,0.2-1c0,0.1,0.2,0.3,0.1,0.8s-0.3,2-0.2,2.8c0.1,0.8,0.2,1.8,0.2,1.8c-0.2,0.6-0.8,8.1-0.6,8.3
		c0.1,0.2,0.3,0.2,0.3,0.2c0.1,0.5,0.9,9.8,1,10.8s0,7.6,0,7.6c0.5,0.8,1.2,0.5,1.2,0.6s0.1,0.7,0.1,0.7c-0.1,0-0.2,0-0.4,0
		c-0.2,0-0.3,0.6-0.3,0.6H24l0,0c0,0-0.1,0.4-0.2,0.6c-0.1,0.2-1.6,2.5-1.7,2.6c-0.1,0.2-0.2,0.2-0.2,0.2c-0.4,0.4,0,0.7,0,0.7
		c0.5,0.2,1.8,0.2,2.1,0.2c0.4,0,0.5,0,1.1-0.2c0.7-0.3,1.1-1.1,1.1-1.1c0.7-0.4,1-0.6,1-0.7c0-0.1,0.1-0.4,0.1-0.7
		s-0.2-0.2-0.2-0.4s0-1.7,0-1.7c-0.2-0.4-0.4-0.4-0.5-0.5s-0.1-0.8-0.1-0.8c0.2-0.1,0.5-0.2,0.5-0.5s-0.1-5.3-0.1-6s0.2-2.3,0.1-2.8
		s0.2-1.3,0.1-2.2s0.2-2.7,0.2-2.7l0.2-1.7c0,0,0.6,3.3,0.6,4.3c0,0,0.4,5.5,0.5,6s0.1,5.1,0.1,5.1c0.2,0.4,0.5,0.4,0.5,0.5
		s0,0.5,0,0.7c0,0.1,0,0.4-0.1,0.5c0,0-0.2,0.2-0.2,0.5c0,0.2,0.2,1.3,0.1,1.4c-0.1,0.1-0.1,0.6-0.1,0.8s0.2,0.3,0.2,0.5
		c0,0.1,0,0.2,0,0.2c-0.2,0.3-0.2,0.7-0.2,0.7c0.1,0.6,0.6,0.7,0.7,0.7s1.5,0.1,2.3,0c0.5,0,0.7-0.3,0.8-0.6c0-0.2-0.3-0.5-0.4-0.7
		c0.2-0.4-0.3-1.6-0.3-2s-0.1-1-0.2-1.2c-0.3-0.5-0.6-0.5-0.7-0.6c0-0.1,0-0.6,0-0.6c0.8-0.1,1.2-0.5,1.2-0.9s-0.2-3.8-0.2-4.5
		c-0.1-0.7-0.2-4.7-0.1-5.1c0.1-0.4,0-3.9,0.3-5.1c0.3-1.2,0.1-3.4,0.1-3.5s0,0,0.3-0.1c0.2-0.2-0.1-0.8-0.1-1.1
		c0-0.2-0.3-0.8-0.2-1.9c0-1.1-0.4-2.9-0.4-3.3c0-0.5-0.2-1.5-0.2-1.9s0.1-3.8,0.1-3.9c0-0.2,0.1-0.6,0.2-0.7c0.1,0,0.1,0.6,0,0.9
		c0,0.4,0.6,3.4,0.7,3.8c0.1,0.4,0,1.1,0,1.6s0.6,4,0.6,4.2l0,0h0.1l0,0v0.8c-0.2,0.1-0.3,0.5-0.3,0.6s0,0.7,0,0.8s0,0.4-0.1,0.4
		C33,36.8,33,36.9,32.9,37c0,0.1-0.1,0.4,0,0.6c0,0.1,0.1,0.2,0.1,0.2s0,0-0.1,0s-0.1,0.1-0.1,0.2h0.5c0.1,0,0.1,0,0.1,0
		s0.1-0.1,0.1,0s-0.2,0.2-0.3,0.3s-0.5,0.2-0.5,0.3s0,0.2,0,0.2c0.1,0,0.3,0,0.3,0c0,0.1,0,0.1,0.2,0.1c0.1,0,0.2-0.1,0.3-0.2
		c0.1-0.1,0.5-0.4,0.7-0.5c0.2-0.2,0.4-0.8,0.6-1c0.1-0.2,0-1.1,0-1.5s0-1.9,0.1-1.9s0.3,0,0.4,0l0,0c0-0.1-0.1-0.3-0.1-0.5
		s0-2,0.1-3.6s-0.2-1.6-0.4-3.7C34.6,24.1,34.1,21,33.4,20.4"/>
	<path id="Fill-3" class="st1" d="M51.6,28.2c-0.3-0.9-0.4-1.9-0.4-1.9l0.3-0.1c0-0.1-0.1-0.5-0.2-1.1c-0.1-0.6-0.2-1.2-0.4-2.6
		c-0.2-1.3-1.6-1.7-1.8-1.8c-0.2-0.1-1.1-0.2-1.1-0.3c-0.1-0.1-0.3-0.4-0.4-0.7c-0.1-0.2-0.4-0.9-0.4-1s0.2-0.3,0.3-0.6
		c0.2-0.5,0.3-1,0.3-1c0.2-2.7-0.7-3.7-0.9-4c-0.3-0.4-0.9-0.5-1.2-0.4s-0.5,0.1-0.5,0.1c-0.4-0.2-0.8-0.1-0.9-0.1
		c-1,0.3-1.7,1.7-1.9,2.8c-0.2,1.2,0.1,2.7,0.2,2.9c0,0.2,0.1,0.4,0.1,0.6c-0.1,0.3-0.3,1-0.4,1.1c0,0-1.5,0.4-2.1,0.9
		c-0.6,0.4-1,1.2-1.1,1.8s-0.2,1.7-0.3,2c0,0.3-0.3,1-0.3,1.1s0.2,0.1,0.2,0.1c-0.1,0.3-0.4,1.9-0.5,2.1s-0.3,1.2-0.4,1.7
		c-0.1,0.4,0,1.6,0.1,2.5c0.1,0.9,0.1,1.7,0.2,2.5c0,0.3,0.1,1,0.1,1s0.1,0.9,0.1,1s0.2,1.6,0.2,1.7c0,0.1,0.5,1,0.5,1l0.7,0.9
		c0.1,0.1,0.2,0.1,0.3,0.1v-0.2l0,0c0,0,0.1,0.1,0.2,0.1c0.1,0,0.1-0.2,0.1-0.2c0-0.1-0.2-0.3-0.2-0.3c0.1,0,0.1-0.1,0-0.2
		c-0.1-0.1-0.3-0.2-0.4-0.3c-0.1-0.1-0.2-0.4-0.2-0.6c0-0.2-0.1-0.5-0.1-0.6h0.1c0.1,0.3,0.2,0.5,0.2,0.6s0.3,0.3,0.4,0.2
		c0.1-0.1,0-0.4-0.1-0.6c-0.1-0.2-0.2-0.7-0.3-1s-0.3-0.7-0.3-0.7c0-0.6,0.3-2.7,0.3-2.7c0.2-1.4,0.2-1.9,0.3-2.8
		c0.1-0.8,0.1-1.2,0.1-1.4c0.1-1.2,0.6-3.1,0.7-3.1c0.1,0,0.2,0,0.2,0c0-0.1,0.1-0.9,0.1-0.8s0.4,0.9,0.4,1.6s0.4,2.4-0.3,4.6
		s-1.3,5-1.2,5.1s0.2,0.1,0.2,0.1c-0.2,2.8,1.1,7.8,1.1,8.6c0,0.2,0.1,0.7,0,1.2c0,0.3-0.1,0.8-0.1,0.8c-0.6,2.5,0.1,5.3,0.3,6.1
		c0.2,1,0.3,2,0.3,2c0.2,0.2,0.3,0.1,0.3,0.2c0,0.1,0,0.8,0,0.8c-0.6,0.4-0.5,0.7-0.5,0.7c0,0.9-0.3,1.3-0.4,1.7
		c-0.1,0.4-0.3,0.7-0.3,0.7c-0.3,0.2-0.3,0.5-0.3,0.5c0.2,0.4,0.7,0.4,0.7,0.4c2.2,0.2,2.1,0,2.1,0c0.5-0.5,0.4-0.7,0.4-0.8
		s-0.2-0.4-0.2-0.4c0.1-0.2,0.2-0.3,0.2-0.4c0-0.1,0-0.6,0-0.7l-0.1-0.1l0.1-1.1c-0.1-0.6-0.4-0.5-0.5-0.7c0-0.1,0-0.6,0-0.6
		c0.1-0.1,0.1-0.1,0.1-0.1c0-0.6,0.2-2.4,0.3-3.8c0.2-1.4,0-3,0-3.6s0.2-1.5,0.4-2.2c0.2-0.6,0.2-1.9,0.2-2.6c0-0.7,0.1-1.4,0.3-2.6
		c0.2-1.3,0.3-2.5,0.5-2.5c0.1,0,0.2,0.1,0.3,0.6c0.1,0.6,0.5,4,0.5,4.3s0.1,2,0.1,3c0.1,1,0.3,0.8,0.3,1.9c0,1.1-0.2,2.5,0.1,4.2
		c0.1,0.8,0.3,3.1,0.3,3.2c0,0.1,0.1,0.1,0.1,0.1c0,0.1-0.1,0.7-0.1,0.7c-0.5,0.1-0.5,0.4-0.5,0.4c0,0.4,0,1.5-0.1,1.5H46
		c-0.1,0.8,0,0.9,0.1,1c0.2,0.1,1.1,0.4,1.2,0.5c0.1,0,0.8,0.6,1.5,0.8s0.8,0,1.6,0c0.9,0,1-0.3,1-0.3c-0.1-0.4-0.4-0.9-0.9-1.3
		c-0.5-0.3-1-1.1-1.2-1.3c-0.3-0.2-0.4-0.7-0.5-0.7c-0.1-0.1-0.2,0.1-0.2,0s0-0.4-0.3-0.5c-0.2-0.1-0.5,0.2-0.5,0.2s-0.1-0.9,0-0.9
		s0.2,0,0.3-0.2c0.1-0.1,0.1-1.1,0.1-1.2l0,0c0.9-3.9,0.8-5.6,0.6-6.6c-0.1-0.7-0.3-0.9-0.2-1.7s0.1-1.6,0.1-1.6
		c1.1-4.4,1-7.8,1.1-7.8s0.1,0,0.1,0c0.1-0.4-0.1-1.5-0.1-1.5c-0.6-3.4-0.9-2.9-1.1-5.1c-0.2-2.2,0.2-3.7,0.3-3.7
		c0-0.1,0.1-0.5,0.1-0.5s0,0.4,0,0.5h0.1c0.2,0.5,0.3,1.5,0.4,1.6c0,0.2,0.1,0.8,0.1,0.8c0.1,1,0.6,3.3,0.9,4.6
		c0.2,1.2,0.3,1.7,0.4,1.9c0.1,0.2,0.1,0.4,0,0.6c-0.1,0.1-0.1,0.2-0.2,0.4c-0.1,0.3-0.1,0.5-0.2,0.7c0,0.2-0.2,0.7-0.3,1.1
		c-0.1,0.3,0,0.4,0.1,0.4s0.2,0,0.2-0.1c0.1-0.1,0.1-0.2,0.1-0.1c0,0,0,0.2,0,0.3s-0.1,0.2-0.2,0.3l-0.2,0.2
		c-0.2,0.1-0.3,0.2-0.3,0.3s0,0.1,0.1,0.1s0.1,0,0.2-0.1c0.1-0.1,0,0,0,0c0,0.1-0.1,0.1-0.1,0.2c0,0.1-0.1,0.1-0.2,0.2
		c-0.1,0.1-0.1,0.1,0,0.2h0.1h0.1l0,0l-0.1,0.1c-0.1,0-0.1,0.1,0,0.1s0.3-0.1,0.3-0.1s0,0.1,0.1,0.1c0.2-0.1,0.6-0.7,0.8-1
		c0-0.1,0.2-0.5,0.2-0.5c0.2-0.5,0.2-0.5,0.3-1.5c0.1-1.2,0.1-1.1,0.1-2s0.1-2.2,0.1-4.1C52.1,29.3,51.8,28.8,51.6,28.2"/>
	<path id="路径" class="st2" d="M30.1,18.9c0.3,0.1,2.8,1.1,3.2,1.5c0.7,0.7,1.2,3.5,1.4,5.6v0.2c0.2,2,0.5,2.1,0.4,3.5L35,30.5
		c-0.1,1.4-0.1,2.8-0.1,3l0.1,0.4v0.2c-0.2,0-0.4,0.1-0.5,0.1c-0.2,0-0.6,0.1-1.1,0.1h-0.2l0,0l-0.1-0.6c-0.2-1.1-0.5-3.2-0.5-3.6
		c0-0.5,0.1-1.2,0-1.6l-0.1-0.3c-0.2-0.9-0.7-3.2-0.6-3.5c0-0.4,0-1,0-0.9c-0.1,0.1-0.1,0.4-0.2,0.6v0.1c0,0.2-0.2,3.5-0.1,3.9
		c0,0.4,0.2,1.2,0.2,1.7v0.2c0,0.4,0.3,2,0.4,3.1v0.2c0,0.8,0.1,1.3,0.2,1.6c0,0.3,0.1,0.5,0.1,0.6c0,0.3,0.2,0.6-0.1,0.9
		c-0.2,0.2-2,0.3-5.2,0.4c-0.3,0.1-3.3-0.1-4.4-0.2c-0.2,0-0.3-0.2-0.3-0.3V36c0.1-1.9,0.5-7.2,0.7-7.7l-0.2-2
		c-0.1-0.8,0.1-2.3,0.2-2.8c0.1-0.4-0.1-0.7-0.1-0.8c0-0.1,0,0.6-0.1,0.9v0.1c-0.2,0.3-0.9,4.1-1.1,4.8l-0.1,2.6v0.6
		c0,0.1,0,0.4,0,0.8l-0.2,2v0.1h-0.3c-0.4,0-0.7,0-0.9,0.1c-0.2,0-0.4,0-0.6,0v-0.5c0-0.8,0-2.3-0.2-3.1v-0.2c-0.2-1,0.2-4.4,0.3-5
		v-0.1c0.1-0.4,0.5-4.7,1.6-5.7l0.4-0.2c0.6-0.3,1.7-0.9,2.6-1.1l0.2,0.1c0.4,0.4,0.9,0.5,1.6,0.5c1,0.1,1.7,0.1,2,0s0.9,0,1.2-0.2
		c0.3-0.2,0.4-0.3,0.7-0.5L30.1,18.9L30.1,18.9z"/>
</g>
</svg>
