<?xml version="1.0" encoding="utf-8"?>
<!-- Generator: Adobe Illustrator 22.1.0, SVG Export Plug-In . SVG Version: 6.00 Build 0)  -->
<svg version="1.1" id="图层_1" xmlns="http://www.w3.org/2000/svg" xmlns:xlink="http://www.w3.org/1999/xlink" x="0px" y="0px"
	 viewBox="0 0 72 72" style="enable-background:new 0 0 72 72;" xml:space="preserve">
<style type="text/css">
	.st0{fill:#C7CED8;}
	.st1{fill:#EBEFF2;}
	.st2{fill:#AEB8C9;}
</style>
<g id="人脸3">
	<path id="Fill-1" class="st0" d="M59,54.9c-0.3-2-1.4-5.2-2.2-6.1c-1.4-1.5-10-5.1-10.8-5.4c-0.8-0.3-4.5-2.5-4.5-2.5
		c-0.2-2,0-5,0-5.4c0-0.5,0.4-1.6,0.5-1.7c0.1-0.2,0.3-0.4,0.3-0.4c0.7,0.4,1.1,0,1.1,0c0.3-0.5,0.9-1.9,0.8-2.2
		c0-0.2,0.2-2.1,0.1-2.4c-0.1-0.3-0.2-0.5-0.2-0.5c1.1-4.3,0.6-6.9,0.6-6.9c-0.6-2.7-2.5-4-2.5-4c-0.4-0.2-1.1-0.8-1.1-0.8
		c-0.7-0.9-1.3-1.1-1.6-1.3c-0.3-0.1-1.3-0.7-1.8-1c-0.5-0.2-1.3-0.1-1.8-0.2c-0.5-0.2-1.2-0.1-1.2-0.1c-0.9,0.3-1.8,0.7-1.8,0.7
		c-0.7,0.1-1,0.5-1.3,0.8c-0.3,0.3-0.8,0.7-0.8,0.7c-1.4,0.6-1.5,1.3-1.5,1.3c-0.8,0.7-1.1,1.8-1.1,1.8c-1.7,2.2-1.1,4.9-1.1,5.9
		c0,1,0.5,3.5,0.5,3.5c0,0.1-0.1,0.2-0.1,0.2c-0.1,0.4,0.1,0.7,0.1,1c0,0.2,0.1,1.7,0.2,2c0.1,0.3,0.9,1.8,1,1.9
		c0.1,0.1,0.2,0.1,0.4,0.1c0.1,0,0.6-0.2,0.6-0.2c0,0,0.1-0.1,0.2,0.3c0.2,0.3,0.6,1.1,0.6,1.6c0,0.3,0.2,4.5,0,5.1
		c-0.1,0.3-3.6,2.3-3.8,2.4c-0.2,0.1-9.7,3.6-11.5,5.7c-0.5,0.6-1.7,3.1-2.1,6.1c0,0,0,0,0,0.1H59z"/>
	<path id="路径" class="st1" d="M26.3,43.2C26.3,43.3,26.3,43.3,26.3,43.2l0.5,0.7c0.7,0.8,1.5,1.1,2.7,1.4
		c1.4,0.4,4.2,0.9,5.2,0.9h1.2c2,0,6.4-0.2,8.2-0.9c1.2-0.5,1.9-1.1,2.2-1.9l2.3,1c2.9,1.3,7.3,3.3,8.2,4.3c0.8,0.9,1.9,3.9,2.2,5.9
		l0,0.2H13c0,0,0,0,0-0.1c0.4-2.9,1.6-5.5,2.1-6.1c1.4-1.7,7.9-4.3,10.5-5.3L26.3,43.2z"/>
	<polygon id="矩形" class="st2" points="13.4,53.4 58.6,53.4 59,55 13,55 	"/>
</g>
</svg>
