<?xml version="1.0" encoding="utf-8"?>
<!-- Generator: Adobe Illustrator 22.1.0, SVG Export Plug-In . SVG Version: 6.00 Build 0)  -->
<svg version="1.1" id="图层_1" xmlns="http://www.w3.org/2000/svg" xmlns:xlink="http://www.w3.org/1999/xlink" x="0px" y="0px"
	 viewBox="0 0 72 72" style="enable-background:new 0 0 72 72;" xml:space="preserve">
<style type="text/css">
	.st0{fill:#21539B;}
	.st1{fill:url(#矩形_1_);}
	.st2{fill:url(#矩形备份_1_);}
	.st3{fill:#B0D0FF;}
</style>
<g id="非机动车2">
	<path id="形状结合" class="st0" d="M15.1,49c0-1.8,1.4-3.2,3.2-3.2s3.2,1.4,3.2,3.2c0,1.8-1.4,3.2-3.2,3.2S15.1,50.8,15.1,49
		L15.1,49z M49.7,49c0-1.8,1.4-3.2,3.2-3.2c1.8,0,3.2,1.4,3.2,3.2c0,1.8-1.4,3.2-3.2,3.2C51.2,52.3,49.7,50.8,49.7,49L49.7,49z
		 M10,42.9v0.3c0.1,0.6,0.6,0.9,1.9,1.2c-0.9,1.3-1.4,2.9-1.4,4.6c0,4.4,3.5,7.9,7.9,7.9s7.9-3.5,7.9-7.9c0-1.3-0.3-2.5-0.9-3.6h0.8
		c0.7,0.5,1.5,0.9,2.2,1.2c0.4,0.1,1.5,0.4,6.3,0.4c3.7,0,7.9-0.1,10.6-0.2C45.2,47.5,45,48.2,45,49c0,4.4,3.5,7.9,7.9,7.9
		s7.9-3.5,7.9-7.9c0-2-0.7-3.8-2-5.2c1.4-0.5,2.4-1.1,2.8-1.7l0.2-0.3l-0.1-0.4c-0.7-1.4-3.9-8.7-6.1-9.2h-0.1H39.8l0.2,0.8
		c0.7,3,0.9,6.2,0.5,6.6c-0.6,0.1-3,0.4-5.5,0.4c-0.9,0-1.7-0.1-2.2-0.1c-2.2-0.4-6.4-2.5-8-5.1c-0.9-1.3-0.4-3.5-0.2-4.3
		c0.5-1,3.5-6.9,4.9-10.1l6.9,0.7l0.4-1.9l-4.5-0.6L31.2,15h-6.5v3.9c-1.6,2.2-6.1,8.5-6.5,12.4c-0.1,0.1-0.3,3.2,0.9,6.2h-2.7
		c-1.1,0-3.9,2.8-6.1,5.2L10,42.9z"/>
	
		<linearGradient id="矩形_1_" gradientUnits="userSpaceOnUse" x1="1" y1="71.5" x2="9.094947e-13" y2="71.5" gradientTransform="matrix(15 0 0 -2 12 201)">
		<stop  offset="0" style="stop-color:#D8EAFF;stop-opacity:0.3522"/>
		<stop  offset="1" style="stop-color:#B0D0FF"/>
	</linearGradient>
	<rect id="矩形" x="12" y="57" class="st1" width="15" height="2"/>
	
		<linearGradient id="矩形备份_1_" gradientUnits="userSpaceOnUse" x1="1" y1="71.5" x2="9.094947e-13" y2="71.5" gradientTransform="matrix(15 0 0 -2 46 201)">
		<stop  offset="0" style="stop-color:#D8EAFF;stop-opacity:0.3522"/>
		<stop  offset="1" style="stop-color:#B0D0FF"/>
	</linearGradient>
	<rect id="矩形备份" x="46" y="57" class="st2" width="15" height="2"/>
	<polygon id="Fill-1" class="st3" points="39.7,30.8 56.1,30.8 56.1,27.9 39.7,27.9 	"/>
	<circle id="椭圆形" class="st3" cx="18.3" cy="49" r="3.5"/>
	<circle id="椭圆形备份" class="st3" cx="52.9" cy="49" r="3.5"/>
</g>
</svg>
