<?xml version="1.0" encoding="utf-8"?>
<!-- Generator: Adobe Illustrator 22.1.0, SVG Export Plug-In . SVG Version: 6.00 Build 0)  -->
<svg version="1.1" id="图层_1" xmlns="http://www.w3.org/2000/svg" xmlns:xlink="http://www.w3.org/1999/xlink" x="0px" y="0px"
	 viewBox="0 0 72 72" style="enable-background:new 0 0 72 72;" xml:space="preserve">
<style type="text/css">
	.st0{fill:#C7CED8;}
	.st1{fill:url(#矩形_1_);}
	.st2{fill:url(#矩形备份_1_);}
	.st3{fill:#EBEFF2;}
</style>
<g id="非机动车3">
	<path id="形状结合" class="st0" d="M31.2,15.1l1.2,3.5l4.5,0.6l-0.4,1.9l-6.9-0.7c-1.4,3.2-4.4,9.1-4.9,10.1
		c-0.2,0.8-0.7,3,0.2,4.3c1.6,2.6,5.9,4.8,8,5.1c0.5,0.1,1.2,0.1,2.2,0.1c2.5,0,4.9-0.3,5.5-0.4c0.4-0.4,0.2-3.6-0.5-6.6l0,0
		l-0.2-0.8h16c2.2,0.6,5.4,7.9,6.1,9.2l0,0l0.1,0.4l-0.2,0.3c-0.4,0.6-1.4,1.2-2.8,1.7c1.2,1.4,2,3.2,2,5.2c0,4.4-3.5,7.9-7.9,7.9
		S45,53.5,45,49.1c0-0.8,0.1-1.5,0.4-2.2c-2.7,0.1-6.9,0.2-10.6,0.2c-4.8,0-5.8-0.2-6.3-0.4c-0.7-0.3-1.5-0.7-2.2-1.2l0,0h-0.8
		c0.6,1.1,0.9,2.3,0.9,3.6c0,4.4-3.5,7.9-7.9,7.9s-7.9-3.5-7.9-7.9c0-1.7,0.6-3.3,1.4-4.6c-1.3-0.3-1.8-0.7-1.9-1.2l0,0v-0.3
		l0.2-0.2c2.2-2.4,5-5.2,6.1-5.2l0,0H19c-1.2-3-0.9-6.1-0.9-6.2c0.4-3.8,4.9-10.2,6.5-12.4l0,0v-3.9H31.2z M18.4,45.8
		c-1.8,0-3.2,1.4-3.2,3.2c0,1.8,1.4,3.2,3.2,3.2s3.2-1.4,3.2-3.2C21.6,47.3,20.2,45.8,18.4,45.8z M53,45.8c-1.8,0-3.2,1.4-3.2,3.2
		c0,1.8,1.4,3.2,3.2,3.2c1.8,0,3.2-1.4,3.2-3.2C56.2,47.3,54.8,45.8,53,45.8z M56.1,28v2.9H39.7V28H56.1z"/>
	<path id="形状结合_1_" class="st0" d="M15.1,49c0-1.8,1.4-3.2,3.2-3.2s3.2,1.4,3.2,3.2c0,1.8-1.4,3.2-3.2,3.2
		S15.1,50.8,15.1,49L15.1,49z M49.7,49c0-1.8,1.4-3.2,3.2-3.2c1.8,0,3.2,1.4,3.2,3.2c0,1.8-1.4,3.2-3.2,3.2
		C51.2,52.3,49.7,50.8,49.7,49L49.7,49z M10,42.9v0.3c0.1,0.6,0.6,0.9,1.9,1.2c-0.9,1.3-1.4,2.9-1.4,4.6c0,4.4,3.5,7.9,7.9,7.9
		s7.9-3.5,7.9-7.9c0-1.3-0.3-2.5-0.9-3.6h0.8c0.7,0.5,1.5,0.9,2.2,1.2c0.4,0.1,1.5,0.4,6.3,0.4c3.7,0,7.9-0.1,10.6-0.2
		C45.2,47.5,45,48.2,45,49c0,4.4,3.5,7.9,7.9,7.9s7.9-3.5,7.9-7.9c0-2-0.7-3.8-2-5.2c1.4-0.5,2.4-1.1,2.8-1.7l0.2-0.3l-0.1-0.4
		c-0.7-1.4-3.9-8.7-6.1-9.2h-0.1H39.8l0.2,0.8c0.7,3,0.9,6.2,0.5,6.6c-0.6,0.1-3,0.4-5.5,0.4c-0.9,0-1.7-0.1-2.2-0.1
		c-2.2-0.4-6.4-2.5-8-5.1c-0.9-1.3-0.4-3.5-0.2-4.3c0.5-1,3.5-6.9,4.9-10.1l6.9,0.7l0.4-1.9l-4.5-0.6L31.2,15h-6.5v3.9
		c-1.6,2.2-6.1,8.5-6.5,12.4c-0.1,0.1-0.3,3.2,0.9,6.2h-2.7c-1.1,0-3.9,2.8-6.1,5.2L10,42.9z"/>
	
		<linearGradient id="矩形_1_" gradientUnits="userSpaceOnUse" x1="1" y1="71.5" x2="9.094947e-13" y2="71.5" gradientTransform="matrix(15 0 0 -2 12 201)">
		<stop  offset="0" style="stop-color:#C7CED8;stop-opacity:0.2987"/>
		<stop  offset="1" style="stop-color:#B6C0D2"/>
	</linearGradient>
	<rect id="矩形" x="12" y="57" class="st1" width="15" height="2"/>
	
		<linearGradient id="矩形备份_1_" gradientUnits="userSpaceOnUse" x1="1" y1="71.5" x2="9.094947e-13" y2="71.5" gradientTransform="matrix(15 0 0 -2 46 201)">
		<stop  offset="0" style="stop-color:#C7CED8;stop-opacity:0.2987"/>
		<stop  offset="1" style="stop-color:#B6C0D2"/>
	</linearGradient>
	<rect id="矩形备份" x="46" y="57" class="st2" width="15" height="2"/>
	<polygon id="Fill-1" class="st3" points="39.7,30.8 56.1,30.8 56.1,27.9 39.7,27.9 	"/>
	<circle id="椭圆形" class="st3" cx="18.3" cy="49" r="3.5"/>
	<circle id="椭圆形备份" class="st3" cx="52.9" cy="49" r="3.5"/>
</g>
</svg>
