<?xml version="1.0" encoding="utf-8"?>
<!-- Generator: Adobe Illustrator 17.0.0, SVG Export Plug-In . SVG Version: 6.00 Build 0)  -->
<!DOCTYPE svg PUBLIC "-//W3C//DTD SVG 1.1//EN" "http://www.w3.org/Graphics/SVG/1.1/DTD/svg11.dtd">
<svg version="1.1" id="图层_1" xmlns="http://www.w3.org/2000/svg" xmlns:xlink="http://www.w3.org/1999/xlink" x="0px" y="0px"
	 width="72px" height="72px" viewBox="0 0 72 72" style="enable-background:new 0 0 72 72;" xml:space="preserve">
<rect style="display:none;fill:#C9CACA;" width="72" height="72"/>
<g style="display:none;opacity:0.9;">
	<polygon style="display:inline;fill:none;" points="47,62.1 58,52.6 47,52.6 	"/>
	<path style="display:inline;fill:none;" d="M5.6,0v2.7C5.6,1.2,6.8,0,8.3,0h55.3c1.5,0,2.8,1.2,2.8,2.8v49.8L44.3,71.9H8.3
		c-1.5,0-2.7-1.2-2.8-2.7V72h60.9V0H5.6z"/>
	<linearGradient id="SVGID_1_" gradientUnits="userSpaceOnUse" x1="35.9838" y1="71.9094" x2="35.9838" y2="1.080616e-002">
		<stop  offset="0" style="stop-color:#CBD9ED"/>
		<stop  offset="1" style="stop-color:#85A9D3"/>
	</linearGradient>
	<path style="display:inline;fill:url(#SVGID_1_);" d="M8.3,71.9h35.9l22.1-19.4V2.8c0-1.5-1.2-2.8-2.8-2.8H8.3
		C6.8,0,5.6,1.2,5.6,2.7v66.6C5.6,70.7,6.8,71.9,8.3,71.9z M47,62.1v-9.6h11L47,62.1z M28.9,14.4h24v4.8h-24V14.4z M28.9,26.4h24
		v4.8h-24V26.4z M28.9,38.4h24v4.8h-24V38.4z M19.3,14.4h4.8v4.8h-4.8V14.4z M19.3,26.4h4.8v4.8h-4.8V26.4z M19.3,38.4h4.8v4.8h-4.8
		V38.4z"/>
</g>
<rect x="23" y="21" style="fill:none;" width="19" height="4"/>
<rect x="23" y="11" style="fill:none;" width="19" height="4"/>
<path style="fill:none;" d="M36.8,41.7c-0.1,0.1-0.2,0.3-0.3,0.4c-1.6,1.9-2.7,4.3-3,6.9c0.5-2.5,1.5-4.8,3.1-6.7
	c0.1-0.1,0.2-0.3,0.3-0.4c2.3-2.5,5.4-4.3,8.9-4.8C42.3,37.5,39.1,39.2,36.8,41.7z"/>
<rect x="15" y="31" style="fill:none;" width="4" height="3"/>
<rect x="23" y="31" style="fill:none;" width="19" height="3"/>
<rect x="15" y="11" style="fill:none;" width="4" height="4"/>
<rect x="15" y="21" style="fill:none;" width="4" height="4"/>
<g>
	<linearGradient id="SVGID_2_" gradientUnits="userSpaceOnUse" x1="28.5" y1="58" x2="28.5" y2="-9.822543e-010">
		<stop  offset="0" style="stop-color:#CBD9ED"/>
		<stop  offset="1" style="stop-color:#85A9D3"/>
	</linearGradient>
	<path style="fill:url(#SVGID_2_);" d="M34.6,57.8c-0.9-1.9-1.4-4-1.4-6.2c0-0.9,0.1-1.8,0.2-2.6c0.4-2.6,1.5-4.9,3-6.9
		c0.1-0.1,0.2-0.3,0.3-0.4c2.3-2.6,5.4-4.3,9-4.7c0.2,0,0.5-0.1,0.7-0.1c0.2,0,0.5,0,0.7,0c0.2,0,0.3,0,0.5,0c0.1,0,0.1,0,0.2,0
		c0,0,0,0,0.1,0c0,0,0.1,0,0.1,0c1.7,0,2.9,0.3,4.9,0.8V2.2C53,1,51.6,0,50.4,0H5.9C4.7,0,4,0.9,4,2.1v53.6C4,56.9,4.7,58,5.9,58
		h28.9C34.7,58,34.6,57.8,34.6,57.8z M23,11h19v4H23V11z M23,21h19v4H23V21z M19,34h-4v-3h4V34z M19,25h-4v-4h4V25z M19,15h-4v-4h4
		V15z M23,31h19v3H23V31z"/>
	<g>
		<g>
			<defs>
				<rect id="SVGID_6_" x="37.5" y="41.2" width="30.6" height="30.6"/>
			</defs>
			<clipPath id="SVGID_3_">
				<use xlink:href="#SVGID_6_"  style="overflow:visible;"/>
			</clipPath>
			<g style="clip-path:url(#SVGID_3_);">
				<circle style="fill:none;" cx="49.8" cy="53.4" r="7.1"/>
				<linearGradient id="SVGID_4_" gradientUnits="userSpaceOnUse" x1="52.8346" y1="71.7569" x2="52.8346" y2="41.17">
					<stop  offset="0" style="stop-color:#CBD9ED"/>
					<stop  offset="1" style="stop-color:#85A9D3"/>
				</linearGradient>
				<path style="fill:url(#SVGID_4_);" d="M67.4,67l-7.3-7.3c1.1-1.8,1.7-3.9,1.7-6.2c0-6.6-5.7-12.3-12.3-12.3c-6.6,0-12,5.4-12,12
					c0,6.6,5.7,12.3,12.3,12.3c2.2,0,4.3-0.6,6-1.6l7.4,7.4c0.7,0.7,1.9,0.7,2.6,0l1.8-1.8C68.4,68.7,68.2,67.8,67.4,67z M49.8,60.5
					c-3.9,0-7.1-3.2-7.1-7.1s3.2-7.1,7.1-7.1s7.1,3.2,7.1,7.1S53.7,60.5,49.8,60.5z"/>
			</g>
		</g>
	</g>
</g>
</svg>
