<svg id="图层_1" data-name="图层 1" xmlns="http://www.w3.org/2000/svg" viewBox="0 0 72 58.86"><defs><style>.cls-1{fill:#435068;}</style></defs><title>无图片</title><path class="cls-1" d="M59.9,40.42A12.27,12.27,0,1,0,72.17,52.69,12.27,12.27,0,0,0,59.9,40.42ZM50.51,52.69a9.35,9.35,0,0,1,2.11-5.92L65.82,60a9.38,9.38,0,0,1-15.3-7.28Zm17.16,5.26-13-13a9.38,9.38,0,0,1,13,13Z" transform="translate(-0.17 -6.87)"/><path class="cls-1" d="M49.26,61.51H6.48a2.1,2.1,0,0,1-2.1-2.1v-10a18.29,18.29,0,0,0,10.36,3.66c4.9,0,10.14-4.12,15.69-8.48s11.45-9,16.49-9a20.36,20.36,0,0,1,10.71,3.46,13.89,13.89,0,0,1,2.28-.19,13.74,13.74,0,0,1,7.51,2.23V13.18a6.31,6.31,0,0,0-6.3-6.31H6.47a6.31,6.31,0,0,0-6.3,6.31v46.2a6.31,6.31,0,0,0,6.26,6.35H55.27A13.86,13.86,0,0,1,49.26,61.51ZM4.37,13.18a2.1,2.1,0,0,1,2.1-2.1H61.1a2.1,2.1,0,0,1,2.1,2.1V37.93c-3.38-2.78-9.24-6.53-16.3-6.53-6.49,0-12.9,5-19.09,9.9-4.74,3.73-9.65,7.58-13.09,7.58-4.83,0-9-3.55-10.36-4.9Z" transform="translate(-0.17 -6.87)"/><path class="cls-1" d="M21.16,36.31a8.42,8.42,0,1,0-8.42-8.42A8.42,8.42,0,0,0,21.16,36.31Zm0-12.63A4.19,4.19,0,1,1,17,27.87,4.19,4.19,0,0,1,21.19,23.68Z" transform="translate(-0.17 -6.87)"/></svg>