<svg id="图层_1" data-name="图层 1" xmlns="http://www.w3.org/2000/svg" xmlns:xlink="http://www.w3.org/1999/xlink" viewBox="0 0 300 224"><defs><style>.cls-1,.cls-5{fill:#fff;}.cls-2{fill:url(#未命名的渐变);}.cls-3{fill-opacity:0.3;fill:url(#未命名的渐变_2);}.cls-4{mask:url(#mask);}.cls-5{opacity:0.66;isolation:isolate;}</style><linearGradient id="未命名的渐变" x1="-566.61" y1="488.82" x2="-566.61" y2="488.14" gradientTransform="matrix(300, 0, 0, -224, 170132, 109496)" gradientUnits="userSpaceOnUse"><stop offset="0" stop-color="#d1e4ff"/><stop offset="1" stop-color="#ecf7fa"/></linearGradient><linearGradient id="未命名的渐变_2" x1="-566.61" y1="486.12" x2="-566.61" y2="484.65" gradientTransform="matrix(300, 0, 0, -68, 170132, 33212)" gradientUnits="userSpaceOnUse"><stop offset="0" stop-color="#81b4ff" stop-opacity="0.23"/><stop offset="1" stop-color="#21539b"/></linearGradient><mask id="mask" x="0" y="156" width="300" height="68" maskUnits="userSpaceOnUse"><g id="mask-4"><polygon id="path-3" class="cls-1" points="0 156 300 156 300 224 0 224 0 156"/></g></mask></defs><title>Sences</title><g id="Page-1"><g id="_4-报警详情-底库详情" data-name="4-报警详情-底库详情"><g id="Sences"><rect id="Rectangle-2" class="cls-2" width="300" height="224"/><g id="Clip-2"><polygon id="path-3-2" data-name="path-3" class="cls-3" points="0 156 300 156 300 224 0 224 0 156"/></g><g class="cls-4"><path id="Fill-1" class="cls-5" d="M115.26,168.34c2.16,0,4.31,0,6.47,0a3.29,3.29,0,0,0,2.43-.88c2.11-1.87,4.26-3.71,6.4-5.56a6.23,6.23,0,0,0,.49-.49.25.25,0,0,0-.16-.4,2.82,2.82,0,0,0-.42,0l-9.2,0a3,3,0,0,0-1.49.42c-.7.39-1.41.76-2.12,1.13l-9.58,5.14a1.84,1.84,0,0,0-.35.22.29.29,0,0,0-.09.23.25.25,0,0,0,.16.18c.33,0,.67.05,1,.05Zm69.78,0h6.32c.38,0,.76,0,1.14-.05a.27.27,0,0,0,.18-.16.25.25,0,0,0-.06-.23c-.31-.21-.62-.41-1-.58l-11-5.94A3.32,3.32,0,0,0,179,161l-8.76,0a6.15,6.15,0,0,0-.72,0,.37.37,0,0,0-.23.12c-.1.13,0,.25.09.35a1.33,1.33,0,0,0,.2.19c2.34,2,4.7,4,7,6.09a2.38,2.38,0,0,0,1.69.58C180.54,168.33,182.79,168.34,185,168.34Zm-52.45,0c2.39,0,4.78,0,7.17,0a1.26,1.26,0,0,0,1.38-.89c.72-1.88,1.48-3.75,2.22-5.62a1.79,1.79,0,0,0,.14-.51.27.27,0,0,0-.22-.3,3.06,3.06,0,0,0-.56-.07c-3.06,0-6.12,0-9.18,0a2.41,2.41,0,0,0-1.76.72c-2,1.83-4.06,3.63-6.09,5.45a10.18,10.18,0,0,0-.76.79c-.12.13,0,.38.21.39.38,0,.76,0,1.15,0Zm34.95,0h6.6c.38,0,.76,0,1.14-.06a.28.28,0,0,0,.16-.43q-.23-.25-.49-.49c-2.13-1.92-4.27-3.82-6.38-5.75a2.25,2.25,0,0,0-1.65-.64c-3,0-6,0-9,0a4.28,4.28,0,0,0-.57,0,.41.41,0,0,0-.38.58,5.81,5.81,0,0,0,.22.63l1.87,4.61c.13.33.27.67.42,1a.82.82,0,0,0,.77.51h7.32Zm-17.42,0h4.45c1,0,2,0,3,0,.62,0,.74-.17.53-.76-.68-1.94-1.39-3.88-2-5.82a1,1,0,0,0-1.14-.78q-4.74,0-9.47,0a1,1,0,0,0-1.13.8c-.65,1.9-1.34,3.8-2,5.7,0,.13-.1.25-.13.38a.36.36,0,0,0,.33.47c.33,0,.67,0,1,0Zm-54.24,0h0c2.88,0,5.75,0,8.63,0a3.61,3.61,0,0,0,1.77-.42c3.91-2.07,7.84-4.11,11.77-6.16a4.31,4.31,0,0,0,.59-.37.24.24,0,0,0,.05-.23.28.28,0,0,0-.2-.14,5.86,5.86,0,0,0-.71,0L107,161a6,6,0,0,0-2.1.4c-2,.76-4.1,1.49-6.15,2.23l-11.52,4.15a3,3,0,0,0-.49.26s0,.07,0,.11,0,.18.13.18c.38,0,.76,0,1.15,0Zm108.5,0h7.9c.38,0,.77,0,1.15,0,.07,0,.14-.08.19-.14s0-.18-.08-.23c-.3-.14-.59-.29-.9-.4l-6.42-2.32c-3.57-1.29-7.14-2.57-10.7-3.87a6.33,6.33,0,0,0-2.24-.39H183.22c-.29,0-.57,0-.86,0s-.51,0-.55.27.17.3.32.39l.38.19c3.84,2,7.69,4,11.51,6a4.09,4.09,0,0,0,2,.49C198.83,168.33,201.6,168.34,204.38,168.34Zm-135.23,0h0c4.45,0,8.91,0,13.36,0a6.78,6.78,0,0,0,2.37-.42c3.35-1.2,6.71-2.37,10.07-3.55l7.52-2.64a1.45,1.45,0,0,0,.73-.4s0-.22,0-.23a2.83,2.83,0,0,0-.69-.12H84.81a8.66,8.66,0,0,0-3,.44,8.93,8.93,0,0,1-1,.27l-11.26,2.68-14,3.37a4.43,4.43,0,0,0-.67.23c-.07,0-.11.13-.14.2s0,.14.16.14c.33,0,.67,0,1,0Zm176.6,0a1.4,1.4,0,0,0-1.09-.63l-8.76-2.09-18.2-4.4a10.74,10.74,0,0,0-2.56-.25l-17,0c-.36,0-1-.14-1,.17-.11.5.56.49.92.62,5.82,2.06,11.64,4.08,17.46,6.15a7.31,7.31,0,0,0,2.51.42h27.72ZM97.66,180h5.17c1.87,0,3.73,0,5.6,0a2.64,2.64,0,0,0,2-.76c.6-.57,1.26-1.09,1.89-1.63l8.93-7.71a3.78,3.78,0,0,0,.56-.6.19.19,0,0,0-.14-.3,5.56,5.56,0,0,0-.85-.07c-4.74,0-9.48,0-14.21,0a3.81,3.81,0,0,0-1.9.48c-2.06,1.13-4.14,2.23-6.21,3.34l-10.94,5.85c-.54.29-1.08.58-1.6.89a.36.36,0,0,0-.16.32c0,.08.21.16.34.17.43,0,.86,0,1.29,0Zm105.09,0c3.31,0,6.62,0,9.92,0,.61,0,1.31.31,1.85-.26-.3-.56-1-.64-1.45-1a2.46,2.46,0,0,0-.38-.2l-8.84-4.73-8-4.28a4.35,4.35,0,0,0-2.16-.6c-4.74,0-9.49,0-14.23,0a6.94,6.94,0,0,0-.85.06.19.19,0,0,0-.14.3,1.88,1.88,0,0,0,.39.39c3.68,3.18,7.37,6.36,11,9.56a3,3,0,0,0,2.19.77C195.65,180,199.2,180,202.74,180Zm-26.28,0H187.1c.38,0,.76,0,1.14-.05a.28.28,0,0,0,.17-.42c-.28-.3-.57-.59-.88-.87-3.26-2.95-6.55-5.87-9.78-8.85a3.38,3.38,0,0,0-2.54-.94c-4.5,0-9,0-13.51,0-1.77,0-1.78,0-1.19,1.51,1,2.5,2,5,3,7.5.2.5.42,1,.6,1.5a.87.87,0,0,0,1,.61h11.35Zm-26.31,0h11.35c.84,0,1-.16.73-.87-.29-.89-.63-1.77-.94-2.66-.78-2.19-1.58-4.38-2.34-6.58-.33-1-.57-1-1.55-1H143.18c-.29,0-.57,0-.86,0a.73.73,0,0,0-.67.43c-.11.24-.2.5-.28.75l-3.1,8.74c-.4,1.12-.36,1.17,1,1.17Zm-26.27,0h10.48l1.15,0a.68.68,0,0,0,.65-.43c.14-.33.3-.65.44-1q1.64-4.05,3.27-8.11c.62-1.55.61-1.57-1.12-1.57-4.55,0-9.09,0-13.64,0a3.29,3.29,0,0,0-2.42.9c-3.41,3.11-6.85,6.2-10.28,9.29a6,6,0,0,0-.48.49.27.27,0,0,0,.18.41c.43,0,.86,0,1.29,0ZM6.39,168.26c.6,0,.88.09,1.16.08,1.29,0,2.59,0,3.88,0H49.22a10.94,10.94,0,0,0,2.55-.29c6.26-1.49,12.53-2.94,18.8-4.4l8.36-2a7,7,0,0,0,.81-.25.26.26,0,0,0,.13-.21c0-.05-.11-.14-.18-.15-.38,0-.76,0-1.14,0-7.9,0-15.81,0-23.71,0a44,44,0,0,0-8,.58c-5.21.94-10.47,1.7-15.7,2.53L8.06,167.73A3.9,3.9,0,0,0,6.39,168.26ZM231.65,180h13.08a3.42,3.42,0,0,0,1.27-.09s.11-.05.11-.08,0-.21,0-.24a6.35,6.35,0,0,0-.78-.34l-9.92-3.57q-8.78-3.16-17.55-6.32a7.15,7.15,0,0,0-2.52-.44c-5.65,0-11.31,0-17,0l-1.15,0a.44.44,0,0,0-.26.09c-.05,0-.08.2-.06.22a8.81,8.81,0,0,0,.84.51q9.27,4.84,18.54,9.68a4.73,4.73,0,0,0,2.32.56C222.93,180,227.29,180,231.65,180ZM68.74,180c4.36,0,8.72,0,13.08,0a4.72,4.72,0,0,0,2.31-.55q9.19-4.82,18.4-9.61a9.55,9.55,0,0,0,.84-.5.24.24,0,0,0,.06-.23.27.27,0,0,0-.2-.15c-.43,0-.86,0-1.29,0-5.51,0-11,0-16.53,0a8.92,8.92,0,0,0-3.21.56c-3.65,1.35-7.31,2.66-11,4L55.31,179.2c-.33.12-.94.14-.87.53s.71.27,1.08.27C59.93,180,64.34,180,68.74,180ZM294,168.17a6.64,6.64,0,0,0-2.08-.49l-12.46-2L262.64,163c-3.12-.5-6.24-.93-9.35-1.47a31.9,31.9,0,0,0-5.56-.57q-13.15,0-26.3,0a6.41,6.41,0,0,0-.72,0c-.11,0-.3,0-.26.2a.3.3,0,0,0,.17.18c.27.09.54.17.82.23l11.28,2.64q8.08,1.89,16.16,3.79a9.81,9.81,0,0,0,2.27.27h41.54A2.87,2.87,0,0,0,294,168.17ZM272.1,180h21.14c.32,0,.87.1.9-.19s-.52-.4-.85-.48l-23.66-5.68q-9.19-2.2-18.38-4.41a10.7,10.7,0,0,0-2.55-.31H221.23l-1.29,0a.48.48,0,0,0-.26.08s-.08.17,0,.21a1.51,1.51,0,0,0,.74.36l10.09,3.54q9.21,3.23,18.42,6.48a7,7,0,0,0,2.38.39Q261.67,180,272.1,180ZM28.26,180h4.6c5.27,0,10.54,0,15.81,0a8.42,8.42,0,0,0,3.22-.51c1.32-.52,2.69-.95,4-1.42l17.73-6.23L80,169.64a4.91,4.91,0,0,0,.65-.28.19.19,0,0,0-.07-.37c-.33,0-.67,0-1,0H51.37a7.21,7.21,0,0,0-1.71.19l-9.46,2.25L23.93,175.3,7,179.36a5.51,5.51,0,0,0-.68.21.27.27,0,0,0-.15.2.23.23,0,0,0,.15.18c.47,0,1,.07,1.43.07Zm42.6,17.59c5.7,0,11.4,0,17.1,0A2.79,2.79,0,0,0,90,196.9c1-.94,2.1-1.83,3.15-2.73l7.59-6.53q3.37-2.91,6.71-5.83c.19-.17.52-.32.35-.65s-.41-.18-.63-.19H90.8c-2.2,0-4.41,0-6.61,0a3.54,3.54,0,0,0-1.77.44c-3,1.63-6.06,3.23-9.09,4.86l-13.8,7.43-5.85,3.13a5.17,5.17,0,0,0-.6.37.25.25,0,0,0-.07.22.26.26,0,0,0,.18.16c.43,0,.86.05,1.29.05Zm39.75,0H127.3c1.7,0,1.56.2,2.24-1.45q2.34-5.74,4.66-11.49c.4-1,.81-2,1.19-3,.18-.46,0-.65-.52-.68-.33,0-.67,0-1,0H111a1.42,1.42,0,0,0-1,.39c-.17.16-.35.31-.52.46L93.22,196.4c-.27.25-.53.51-.78.78s0,.38.2.39c.43,0,.86,0,1.29,0Zm79.2,0H206.5c.38,0,.77,0,1.15,0a.3.3,0,0,0,.23-.49c-.26-.26-.52-.52-.8-.77l-5.47-4.92c-3.58-3.22-7.16-6.44-10.72-9.68a2.43,2.43,0,0,0-2-.77,3.66,3.66,0,0,1-.43,0H166.86c-.38,0-.77,0-1.15,0-.69,0-.83.22-.63.85.05.17.12.34.18.51l5.67,14c.55,1.37.45,1.29,2.06,1.29Zm-39.67,0h10.5c2.35,0,4.7,0,7,0,.88,0,1-.16.73-1-.05-.17-.11-.34-.18-.51l-3.37-9.5c-.57-1.61-1.12-3.21-1.7-4.82-.28-.77-.36-.81-1.23-.84H138.79c-1.27,0-1.27,0-1.69,1.19l-4.37,12.43c-.28.8-.57,1.6-.83,2.41a.43.43,0,0,0,.41.57c.43,0,.86,0,1.29,0Zm79.39,0h17c.29,0,.57,0,.86,0a.27.27,0,0,0,.18-.16.25.25,0,0,0-.07-.23c-.23-.15-.49-.28-.73-.42l-15.29-8.21c-4.4-2.36-8.8-4.7-13.18-7.07a4.62,4.62,0,0,0-2.31-.58q-11,0-22,0c-.38,0-.77,0-1.15,0-.13,0-.32,0-.31.21a.56.56,0,0,0,.13.35c.22.23.48.44.72.65l16.83,14.53c.21.18.43.35.64.54a1.48,1.48,0,0,0,1,.38h17.67Zm-202.12,0c6.85,0,13.7,0,20.55,0a5.45,5.45,0,0,0,2.72-.66c1.78-1,3.59-1.87,5.38-2.81l14-7.34,9.77-5.09.13-.06c.19-.12.49-.17.46-.44s-.35-.22-.57-.24-.67,0-1,0H51.55a5.7,5.7,0,0,0-2,.28L35.51,186.3,10.2,195.41,5.79,197c-.18.07-.35.2-.28.39s.22.16.34.17c.43,0,.86,0,1.29,0Zm245.79,0h20.69c.43,0,.86,0,1.29-.05,0,0,.06-.05.08-.08s.07-.18,0-.23-.51-.24-.77-.34l-13.53-4.88-29.87-10.74A6.07,6.07,0,0,0,249,181H221.07c-.33,0-.67,0-1,.05a.25.25,0,0,0-.16.16.25.25,0,0,0,.1.21c.74.41,1.48.82,2.23,1.21L236,189.79q6.89,3.59,13.76,7.21a5.55,5.55,0,0,0,2.72.66C259.4,197.63,266.3,197.64,273.19,197.64Zm-103-37.1h7.19c.29,0,.57,0,.86,0,0,0,.09,0,.09-.08s0-.2,0-.24a3.29,3.29,0,0,0-.48-.28l-4.47-2.41c-.2-.11-.39-.25-.84-.53a3.23,3.23,0,0,1,1.36.41c1.57.84,3.17,1.66,4.74,2.5a5.79,5.79,0,0,0,2.87.68c3.21,0,6.42,0,9.63,0,.29,0,.57,0,.86,0a.26.26,0,0,0,.19-.13c0-.07,0-.2-.08-.22-.62-.24-1.23-.47-1.86-.7-2.45-.89-4.89-1.77-7.29-2.81.45.13.92.24,1.36.39l5.5,1.9L193,160.1a7.82,7.82,0,0,0,2.66.45c5.75,0,11.5,0,17.25,0,.14,0,.28,0,.43,0,.08-.42-.3-.4-.52-.45-2.27-.55-4.55-1.07-6.82-1.61s-4.36-1.06-6.53-1.6c-.08,0-.14-.1-.24-.19a1.51,1.51,0,0,1,.4,0l6.66,1.53,9.89,2.26a5.26,5.26,0,0,0,1.14.11l27.32,0a1,1,0,0,0,.74-.18,42.54,42.54,0,0,0-5-.87c-1.69-.3-3.39-.57-5.09-.85s-3.3-.55-5-.81-3.27-.49-4.93-.82a.5.5,0,0,1,.55-.15l3.24.49,3.24.52c2.78.44,5.56.87,8.34,1.3s5.76.86,8.65,1.27a12.16,12.16,0,0,0,1.72.08l40.83,0a5.81,5.81,0,0,0,1.59-.15c-.7-.12-1.39-.29-2.09-.36-3-.32-6-.61-9-.93s-6-.68-9-1c-2.19-.24-4.38-.45-6.57-.67a3.41,3.41,0,0,1-1.24-.24c.52-.27.83.22,1.26.19s.86,0,1.29-.06c.69-.07,1.25.4,2,.3a3.75,3.75,0,0,1,1.84.19,1.83,1.83,0,0,0,.57,0,40.14,40.14,0,0,1,5,.48c1,.16,2.09.2,3.13.27,2.15.16,4.28.46,6.42.64s4.27.48,6.41.69c1.62.16,3.24.26,4.87.41.52,0,1,.15,1.54.23v.53a15.81,15.81,0,0,0-3.26-.14q-13.23,0-26.45,0l-13.51,0a2.16,2.16,0,0,0-1.27.18c.29.39.76.32,1.15.39l16.58,2.58,9.64,1.48L300,168.31v.53c-.62,0-1.23.1-1.85.1H255.48a1.8,1.8,0,0,0-1.12.16c.16.34.53.35.83.42l6.41,1.5L274.13,174l16,3.76,9.85,2.34v1.07c-.37-.33-.82-.15-1.23-.15-10.81,0-21.62-.1-32.42.07-2.68,0-5.36,0-8,0-.33,0-.66,0-1,.06a8.92,8.92,0,0,0-3.56.07,15.68,15.68,0,0,0,3.62,1.41,1.56,1.56,0,0,0,.25.13l16.64,5.83,11,3.86,14.21,5c.17.06.34.16.52,0V199l-2,0H256.89c-.53,0-1.05,0-1.58.06-.12,0-.29.08-.28.25a.53.53,0,0,0,.11.35,4.19,4.19,0,0,0,.71.45L270,207.5l11.4,5.95,11.53,6,6.13,3.21a1.8,1.8,0,0,1,.36.21.28.28,0,0,1,.08.24.25.25,0,0,1-.19.15c-1,0-1.92,0-2.87,0a2.62,2.62,0,0,1-1.19-.44l-7.45-4-8-4.27-11.71-6.26L254.56,201l-2.85-1.55a4.06,4.06,0,0,0-2-.51q-17.33,0-34.66,0c-.46,0-1.11-.19-1.32.23s.42.82.78,1.13q5.19,4.52,10.41,9l6.11,5.26,8.84,7.63a7.19,7.19,0,0,1,.62.56.53.53,0,0,1,.09.36s-.15.11-.24.11l-1.44,0c-1.9,0-1.89,0-3.24-1.23L218.2,206.36c-2.41-2.17-4.84-4.32-7.21-6.51a3.08,3.08,0,0,0-2.28-.87q-17.4,0-34.8,0a10.62,10.62,0,0,0-1.14.06.44.44,0,0,0-.4.59c.23.68.48,1.35.75,2q3.16,7.87,6.34,15.74c.64,1.58,1.29,3.16,1.94,4.74a4.31,4.31,0,0,1,.26.76.31.31,0,0,1-.31.38q-1.58,0-3.16,0a.56.56,0,0,1-.51-.41l-.27-.76-6.87-19.39c-.36-1-.74-2-1.09-3a1,1,0,0,0-1.06-.7c-.33,0-.67,0-1,0H133c-2,0-1.76-.14-2.38,1.59-2.08,5.83-4.12,11.66-6.19,17.49-.51,1.44-1,2.87-1.54,4.3-.34.92-.35.92-1.44.93-.62,0-1.25,0-1.87,0-.91,0-1-.12-.65-1,.76-1.92,1.55-3.83,2.32-5.75l5.95-14.74c.3-.75.59-1.5.86-2.26a.41.41,0,0,0-.4-.56c-.38,0-.77,0-1.15,0H91.87c-.24,0-.48,0-.72,0a1.52,1.52,0,0,0-1.17.41l-.42.37-10.3,9.3q-7.48,6.73-15,13.47a2.38,2.38,0,0,1-2,.77c-.14,0-.29,0-.43,0a6,6,0,0,1-2-.13c.15-.72.84-1,1.34-1.43q6-5.2,12-10.38L86,200.28c.3-.26.83-.47.68-.92s-.8-.35-1.24-.36c-4.12,0-8.24,0-12.37,0-7.38,0-14.76,0-22.15,0a4.92,4.92,0,0,0-2.45.6q-6,3.22-11.94,6.42L14.16,218c-2.82,1.51-5.65,3-8.44,4.57a5.27,5.27,0,0,1-3.12.75c-.61,0-1.24,0-2,0a1.53,1.53,0,0,1,.89-.73L12.3,217l12.27-6.42,15.42-8,4.5-2.36a3.75,3.75,0,0,0,.37-.2c.26-.17.69-.27.62-.64S45,199,44.66,199c-.48,0-1,0-1.44,0H2.81a13,13,0,0,1-2.58-.11c-.07,0-.16.08-.23.13v-1.6c.29.37.61.1.89,0l21.35-7.49,16-5.62,7-2.46c.35-.13.69-.3,1-.46,0,0,0-.08,0-.12s0-.18-.11-.2a5.13,5.13,0,0,0-.7-.09H41.87l-41.37,0a.58.58,0,0,0-.5.19v-1.07c.09,0,.2.08.27.05,2.13-.67,4.34-1.08,6.51-1.59L19,175.68l18.77-4.42c2.17-.51,4.38-.93,6.51-1.59a1.19,1.19,0,0,0,.28,0,3.71,3.71,0,0,0,1.55-.47c-.48-.49-1.1-.2-1.65-.23a8.39,8.39,0,0,0-2.24.07c-.52,0-1-.08-1.57-.08H2.31c-.48,0-1,.05-1.43.08-.28-.12-.52-.38-.88-.19v-.53a1.21,1.21,0,0,0,.4.07c.75-.13,1.49-.31,2.25-.43l18.13-2.83,15.87-2.45L44,161.52c.28,0,.62,0,.78-.36a2,2,0,0,0-1.18-.17l-24.28,0-19.1,0c-.08,0-.15.1-.23.15v-.8a.52.52,0,0,0,.5.17c2.89-.38,5.82-.46,8.71-.88,1.37-.2,2.76-.24,4.14-.37s2.75-.32,4.13-.43c3.1-.23,6.15-.89,9.27-.93a3,3,0,0,1,.82.07c-2.23.47-4.52.57-6.78.85s-4.66.52-7,.78-4.56.51-6.83.93c.44,0,.88.05,1.33.05l41,0a12.54,12.54,0,0,0,2.14-.2c1.41-.24,2.84-.37,4.25-.59,1.88-.29,3.75-.65,5.63-.95q8.08-1.26,16.16-2.48a2.84,2.84,0,0,1,.57-.06c.13,0,.34.07.36.14.1.36-.22.16-.34.18l-6.23,1-10.9,1.75c-1.64.26-3.29.5-4.94.75a1,1,0,0,0-.27.09c-.12.06-.28.11-.22.27s.13.11.2.12a3.19,3.19,0,0,0,.43,0l26.6,0a7.34,7.34,0,0,0,1.7-.2c4.5-1.07,9-2.11,13.51-3.17l4.73-1.13a.78.78,0,0,1,.76.16c-.38.13-.71.26-1,.34l-11.83,2.83-3.06.73c-.18,0-.41.11-.37.31s.32.13.48.13h14.52c1,0,1.91-.05,2.87-.06Z"/></g></g></g></g></svg>