<svg id="图层_1" data-name="图层 1" xmlns="http://www.w3.org/2000/svg" xmlns:xlink="http://www.w3.org/1999/xlink" viewBox="0 0 100 100"><defs><style>.cls-1{fill:url(#未命名的渐变_15);}.cls-2{fill-opacity:0.73;fill:url(#未命名的渐变_14);}</style><linearGradient id="未命名的渐变_15" x1="-664.79" y1="425.93" x2="-664.79" y2="425.3" gradientTransform="matrix(158, 0, 0, -158, 105087, 67297)" gradientUnits="userSpaceOnUse"><stop offset="0" stop-color="#d1e4ff"/><stop offset="1" stop-color="#ecf7fa"/></linearGradient><radialGradient id="未命名的渐变_14" cx="-670.96" cy="424.53" r="0.7" gradientTransform="matrix(0, -112.86, -235.2, 0, 99899.7, -75637.98)" gradientUnits="userSpaceOnUse"><stop offset="0" stop-color="#81b4ff" stop-opacity="0.23"/><stop offset="1" stop-color="#21539b"/></radialGradient></defs><title>renxiang</title><rect id="Rectangle-2" class="cls-1" width="100" height="100"/><path id="Fill-2" class="cls-2" d="M44.48,15.28l.55,1.1-2.2-.55-2.48,1.37L39,19.41l-3.58,2.47-3.85,5.49,1.1-.27-1.12,1.85S31.15,29.4,31,32l.83-.27-.55,2.55.55-.36.28,3.3.83,3.3-1.38.55L30.71,43l1.65,6,1.38,1.1h1.1l1.93,6.32,1.38,2.75.28,6s-1.78,7.1-6.88,8.52S23,77,17.23,78.2c-3.85.82-5.78,2.75-5.78,7.42H89.89S89,80.53,85.21,79c-5.5-2.2-12.11-3.3-16.79-4.94C64.75,72.78,61.82,65,61.82,65l-.28-6.32.83-2.2,2.2-7.42.83.27,1.1-.82,1.38-5.22-.28-2.47L66.22,40l1.93-6.87S67,24.35,60.72,21.88a17.31,17.31,0,0,0-14.86-7.69l1.65,1.92Z"/></svg>